<?xml version="1.0" encoding="UTF-8" standalone="no"?>
<!DOCTYPE svg PUBLIC "-//W3C//DTD SVG 1.1//EN"
 "http://www.w3.org/Graphics/SVG/1.1/DTD/svg11.dtd">
<!-- Generated by graphviz version 2.42.3 (20191010.1750)
 -->
<!-- Title: %3 Pages: 1 -->
<svg width="419pt" height="415pt"
 viewBox="0.00 0.00 418.56 415.11" xmlns="http://www.w3.org/2000/svg" xmlns:xlink="http://www.w3.org/1999/xlink">
<g id="graph0" class="graph" transform="scale(1 1) rotate(0) translate(4 411.11)">
<title>%3</title>
<polygon fill="white" stroke="transparent" points="-4,4 -4,-411.11 414.56,-411.11 414.56,4 -4,4"/>
<!-- space -->
<g id="node1" class="node">
<title>space</title>
<ellipse fill="none" stroke="black" cx="177" cy="-389.11" rx="37.09" ry="18"/>
<text text-anchor="middle" x="177" y="-385.41" font-family="Times,serif" font-size="14.00">space</text>
</g>
<!-- space&#45;&gt;space -->
<g id="edge1" class="edge">
<title>space&#45;&gt;space</title>
<path fill="none" stroke="dimgray" stroke-dasharray="5,2" d="M203.34,-401.92C218.24,-404.42 232.05,-400.15 232.05,-389.11 232.05,-380.66 223.96,-376.17 213.47,-375.66"/>
<polygon fill="dimgray" stroke="dimgray" points="213.09,-372.18 203.34,-376.3 213.54,-379.16 213.09,-372.18"/>
<text text-anchor="middle" x="219.14" y="-363.98" font-family="Times,serif" font-size="14.00">ws</text>
</g>
<!-- string -->
<g id="node2" class="node">
<title>string</title>
<ellipse fill="none" stroke="black" cx="177" cy="-317.11" rx="38.19" ry="18"/>
<text text-anchor="middle" x="177" y="-313.41" font-family="Times,serif" font-size="14.00">string</text>
</g>
<!-- space&#45;&gt;string -->
<g id="edge2" class="edge">
<title>space&#45;&gt;string</title>
<path fill="none" stroke="darkorange" stroke-dasharray="5,2" d="M177,-370.8C177,-363.09 177,-353.82 177,-345.22"/>
<polygon fill="darkorange" stroke="darkorange" points="180.5,-345.21 177,-335.21 173.5,-345.21 180.5,-345.21"/>
<text text-anchor="middle" x="184.61" y="-347.83" font-family="Times,serif" font-size="14.00">&quot;</text>
</g>
<!-- escape -->
<g id="node3" class="node">
<title>escape</title>
<ellipse fill="none" stroke="black" cx="177" cy="-173.11" rx="42.49" ry="18"/>
<text text-anchor="middle" x="177" y="-169.41" font-family="Times,serif" font-size="14.00">escape</text>
</g>
<!-- space&#45;&gt;escape -->
<g id="edge3" class="edge">
<title>space&#45;&gt;escape</title>
<path fill="none" stroke="darkorange" stroke-dasharray="5,2" d="M158.17,-373.09C147.7,-363.49 135.67,-350.06 130,-335.11 112.23,-288.28 139.56,-231.69 159.41,-199.6"/>
<polygon fill="darkorange" stroke="darkorange" points="162.57,-201.16 165.01,-190.85 156.67,-197.38 162.57,-201.16"/>
<text text-anchor="middle" x="162.62" y="-204.99" font-family="Times,serif" font-size="14.00">\</text>
</g>
<!-- sep -->
<g id="node4" class="node">
<title>sep</title>
<ellipse fill="none" stroke="black" cx="132" cy="-29.11" rx="27" ry="18"/>
<text text-anchor="middle" x="132" y="-25.41" font-family="Times,serif" font-size="14.00">sep</text>
</g>
<!-- space&#45;&gt;sep -->
<g id="edge4" class="edge">
<title>space&#45;&gt;sep</title>
<path fill="none" stroke="darkorange" stroke-dasharray="5,2" d="M145.15,-379.54C94.01,-362.42 0,-319.24 0,-246.11 0,-246.11 0,-246.11 0,-172.11 0,-113.08 61.48,-66.54 100.69,-44.33"/>
<polygon fill="darkorange" stroke="darkorange" points="102.53,-47.32 109.65,-39.47 99.19,-41.17 102.53,-47.32"/>
<text text-anchor="middle" x="98.94" y="-50.24" font-family="Times,serif" font-size="14.00">sep</text>
</g>
<!-- token -->
<g id="node5" class="node">
<title>token</title>
<ellipse fill="none" stroke="black" cx="196" cy="-101.11" rx="36.29" ry="18"/>
<text text-anchor="middle" x="196" y="-97.41" font-family="Times,serif" font-size="14.00">token</text>
</g>
<!-- space&#45;&gt;token -->
<g id="edge5" class="edge">
<title>space&#45;&gt;token</title>
<path fill="none" stroke="darkorange" stroke-dasharray="5,2" d="M209.25,-380.11C259.18,-366.62 352.36,-333.59 386,-263.11 421.5,-188.72 301.1,-137.61 235.49,-115.09"/>
<polygon fill="darkorange" stroke="darkorange" points="236.44,-111.72 225.85,-111.85 234.21,-118.36 236.44,-111.72"/>
<text text-anchor="middle" x="243.73" y="-106.14" font-family="Times,serif" font-size="14.00">abc</text>
</g>
<!-- string&#45;&gt;string -->
<g id="edge6" class="edge">
<title>string&#45;&gt;string</title>
<path fill="none" stroke="dimgray" stroke-dasharray="5,2" d="M214.39,-321.59C225.09,-321.41 233.35,-319.92 233.35,-317.11 233.35,-315.31 229.96,-314.05 224.71,-313.33"/>
<polygon fill="dimgray" stroke="dimgray" points="224.6,-309.81 214.39,-312.63 224.13,-316.79 224.6,-309.81"/>
<text text-anchor="middle" x="231.18" y="-302.44" font-family="Times,serif" font-size="14.00">ws</text>
</g>
<!-- string&#45;&gt;string -->
<g id="edge9" class="edge">
<title>string&#45;&gt;string</title>
<path fill="none" stroke="dimgray" stroke-dasharray="5,2" d="M211.03,-325.51C231.74,-327.46 251.35,-324.65 251.35,-317.11 251.35,-310.8 237.65,-307.81 221.05,-308.13"/>
<polygon fill="dimgray" stroke="dimgray" points="220.81,-304.64 211.03,-308.71 221.21,-311.63 220.81,-304.64"/>
<text text-anchor="middle" x="226.88" y="-296.48" font-family="Times,serif" font-size="14.00">sep</text>
</g>
<!-- string&#45;&gt;string -->
<g id="edge10" class="edge">
<title>string&#45;&gt;string</title>
<path fill="none" stroke="dimgray" stroke-dasharray="5,2" d="M207.74,-327.93C237.2,-333.72 269.35,-330.12 269.35,-317.11 269.35,-305.57 244.07,-301.43 217.81,-304.68"/>
<polygon fill="dimgray" stroke="dimgray" points="217.07,-301.25 207.74,-306.29 218.17,-308.16 217.07,-301.25"/>
<text text-anchor="middle" x="222.65" y="-292.5" font-family="Times,serif" font-size="14.00">abc</text>
</g>
<!-- string&#45;&gt;escape -->
<g id="edge8" class="edge">
<title>string&#45;&gt;escape</title>
<path fill="none" stroke="dimgray" stroke-dasharray="5,2" d="M155.78,-301.97C140.91,-277.77 139.28,-228.13 150.87,-198.32"/>
<polygon fill="dimgray" stroke="dimgray" points="154.15,-199.57 155.31,-189.04 147.83,-196.55 154.15,-199.57"/>
<text text-anchor="middle" x="155.13" y="-203.34" font-family="Times,serif" font-size="14.00">\</text>
</g>
<!-- unquote -->
<g id="node6" class="node">
<title>unquote</title>
<ellipse fill="none" stroke="black" cx="337" cy="-245.11" rx="48.99" ry="18"/>
<text text-anchor="middle" x="337" y="-241.41" font-family="Times,serif" font-size="14.00">unquote</text>
</g>
<!-- string&#45;&gt;unquote -->
<g id="edge7" class="edge">
<title>string&#45;&gt;unquote</title>
<path fill="none" stroke="dimgray" stroke-dasharray="5,2" d="M201.33,-303.11C226.08,-291.55 264.67,-274.6 294.45,-262.19"/>
<polygon fill="dimgray" stroke="dimgray" points="295.87,-265.39 303.77,-258.34 293.2,-258.92 295.87,-265.39"/>
<text text-anchor="middle" x="291.61" y="-267.9" font-family="Times,serif" font-size="14.00">&quot;</text>
</g>
<!-- escape&#45;&gt;string -->
<g id="edge31" class="edge">
<title>escape&#45;&gt;string</title>
<path fill="none" stroke="dimgray" stroke-dasharray="5,2" d="M163.56,-190.28C155.46,-214.67 154.59,-261.09 160.94,-290.22"/>
<polygon fill="dimgray" stroke="dimgray" points="157.62,-291.35 163.61,-300.09 164.38,-289.53 157.62,-291.35"/>
<text text-anchor="middle" x="152.01" y="-282.63" font-family="Times,serif" font-size="14.00">ws</text>
</g>
<!-- escape&#45;&gt;string -->
<g id="edge32" class="edge">
<title>escape&#45;&gt;string</title>
<path fill="none" stroke="dimgray" stroke-dasharray="5,2" d="M172.41,-191.3C169.85,-215.53 169.57,-260 171.55,-288.79"/>
<polygon fill="dimgray" stroke="dimgray" points="168.08,-289.31 172.42,-298.98 175.05,-288.72 168.08,-289.31"/>
<text text-anchor="middle" x="163.45" y="-279.67" font-family="Times,serif" font-size="14.00">&quot;</text>
</g>
<!-- escape&#45;&gt;string -->
<g id="edge33" class="edge">
<title>escape&#45;&gt;string</title>
<path fill="none" stroke="dimgray" stroke-dasharray="5,2" d="M181.59,-191.3C184.15,-215.53 184.43,-260 182.45,-288.79"/>
<polygon fill="dimgray" stroke="dimgray" points="178.95,-288.72 181.58,-298.98 185.92,-289.31 178.95,-288.72"/>
<text text-anchor="middle" x="175.39" y="-278.38" font-family="Times,serif" font-size="14.00">\</text>
</g>
<!-- escape&#45;&gt;string -->
<g id="edge34" class="edge">
<title>escape&#45;&gt;string</title>
<path fill="none" stroke="dimgray" stroke-dasharray="5,2" d="M190.44,-190.28C198.54,-214.67 199.41,-261.09 193.06,-290.22"/>
<polygon fill="dimgray" stroke="dimgray" points="189.62,-289.53 190.39,-300.09 196.38,-291.35 189.62,-289.53"/>
<text text-anchor="middle" x="187.3" y="-278.66" font-family="Times,serif" font-size="14.00">sep</text>
</g>
<!-- escape&#45;&gt;string -->
<g id="edge35" class="edge">
<title>escape&#45;&gt;string</title>
<path fill="none" stroke="dimgray" stroke-dasharray="5,2" d="M198.69,-189.04C213.28,-213.78 214.63,-263.48 202.75,-292.86"/>
<polygon fill="dimgray" stroke="dimgray" points="199.54,-291.46 198.22,-301.97 205.8,-294.58 199.54,-291.46"/>
<text text-anchor="middle" x="198.67" y="-280.28" font-family="Times,serif" font-size="14.00">abc</text>
</g>
<!-- escape&#45;&gt;token -->
<g id="edge11" class="edge">
<title>escape&#45;&gt;token</title>
<path fill="none" stroke="dimgray" stroke-dasharray="5,2" d="M153.1,-157.94C148.92,-147.17 152.17,-132.25 160.86,-120.54"/>
<polygon fill="dimgray" stroke="dimgray" points="163.56,-122.78 167.72,-113.04 158.39,-118.06 163.56,-122.78"/>
<text text-anchor="middle" x="162.32" y="-126.51" font-family="Times,serif" font-size="14.00">ws</text>
</g>
<!-- escape&#45;&gt;token -->
<g id="edge12" class="edge">
<title>escape&#45;&gt;token</title>
<path fill="none" stroke="dimgray" stroke-dasharray="5,2" d="M164,-155.87C163.41,-146.81 165.92,-135.37 170.48,-125.38"/>
<polygon fill="dimgray" stroke="dimgray" points="173.69,-126.81 175.45,-116.36 167.56,-123.43 173.69,-126.81"/>
<text text-anchor="middle" x="174.24" y="-130.62" font-family="Times,serif" font-size="14.00">&quot;</text>
</g>
<!-- escape&#45;&gt;token -->
<g id="edge13" class="edge">
<title>escape&#45;&gt;token</title>
<path fill="none" stroke="dimgray" stroke-dasharray="5,2" d="M175.78,-154.8C177.13,-146.8 179.54,-137.13 182.35,-128.26"/>
<polygon fill="dimgray" stroke="dimgray" points="185.68,-129.33 185.64,-118.73 179.07,-127.04 185.68,-129.33"/>
<text text-anchor="middle" x="187.5" y="-132.93" font-family="Times,serif" font-size="14.00">\</text>
</g>
<!-- escape&#45;&gt;token -->
<g id="edge14" class="edge">
<title>escape&#45;&gt;token</title>
<path fill="none" stroke="dimgray" stroke-dasharray="5,2" d="M187.34,-155.52C190.31,-147.73 193.14,-138.24 195.19,-129.44"/>
<polygon fill="dimgray" stroke="dimgray" points="198.63,-130.05 197.19,-119.55 191.77,-128.66 198.63,-130.05"/>
<text text-anchor="middle" x="201.4" y="-133.36" font-family="Times,serif" font-size="14.00">sep</text>
</g>
<!-- escape&#45;&gt;token -->
<g id="edge15" class="edge">
<title>escape&#45;&gt;token</title>
<path fill="none" stroke="dimgray" stroke-dasharray="5,2" d="M197.94,-157.26C203.35,-148.89 207.18,-138.19 208.54,-128.44"/>
<polygon fill="dimgray" stroke="dimgray" points="212.04,-128.55 209,-118.4 205.05,-128.23 212.04,-128.55"/>
<text text-anchor="middle" x="215.85" y="-131.34" font-family="Times,serif" font-size="14.00">abc</text>
</g>
<!-- sep&#45;&gt;space -->
<g id="edge16" class="edge">
<title>sep&#45;&gt;space</title>
<path fill="none" stroke="royalblue" stroke-dasharray="5,2" d="M114.47,-42.89C82.23,-64.48 18,-111.77 18,-172.11 18,-246.11 18,-246.11 18,-246.11 18,-311.31 92.73,-352.7 139.84,-373.04"/>
<polygon fill="royalblue" stroke="royalblue" points="138.57,-376.31 149.15,-376.95 141.28,-369.85 138.57,-376.31"/>
<text text-anchor="middle" x="131.16" y="-373.95" font-family="Times,serif" font-size="14.00">ws</text>
</g>
<!-- sep&#45;&gt;string -->
<g id="edge17" class="edge">
<title>sep&#45;&gt;string</title>
<path fill="none" stroke="seagreen" stroke-dasharray="5,2" d="M128.81,-47.23C123.86,-76.87 115.88,-139.51 126,-191.11 133.05,-227.05 150.49,-265.68 163.02,-290.34"/>
<polygon fill="seagreen" stroke="seagreen" points="160,-292.11 167.71,-299.37 166.21,-288.89 160,-292.11"/>
<text text-anchor="middle" x="153.44" y="-284.7" font-family="Times,serif" font-size="14.00">&quot;</text>
</g>
<!-- sep&#45;&gt;escape -->
<g id="edge18" class="edge">
<title>sep&#45;&gt;escape</title>
<path fill="none" stroke="seagreen" stroke-dasharray="5,2" d="M134.37,-47.18C137.18,-65.34 142.58,-94.77 151,-119.11 154.17,-128.26 158.54,-137.87 162.79,-146.36"/>
<polygon fill="seagreen" stroke="seagreen" points="159.76,-148.12 167.47,-155.38 165.97,-144.89 159.76,-148.12"/>
<text text-anchor="middle" x="153.2" y="-140.7" font-family="Times,serif" font-size="14.00">\</text>
</g>
<!-- sep&#45;&gt;sep -->
<g id="edge19" class="edge">
<title>sep&#45;&gt;sep</title>
<path fill="none" stroke="seagreen" stroke-dasharray="5,2" d="M151.9,-41.54C164.69,-44.78 177,-40.64 177,-29.11 177,-20.73 170.5,-16.25 162.04,-15.67"/>
<polygon fill="seagreen" stroke="seagreen" points="161.5,-12.21 151.9,-16.68 162.19,-19.17 161.5,-12.21"/>
<text text-anchor="middle" x="167.38" y="-3.8" font-family="Times,serif" font-size="14.00">sep</text>
</g>
<!-- sep&#45;&gt;token -->
<g id="edge20" class="edge">
<title>sep&#45;&gt;token</title>
<path fill="none" stroke="seagreen" stroke-dasharray="5,2" d="M149.48,-43.31C159.08,-52.39 170.71,-64.73 180.05,-75.58"/>
<polygon fill="seagreen" stroke="seagreen" points="177.58,-78.08 186.67,-83.52 182.95,-73.6 177.58,-78.08"/>
<text text-anchor="middle" x="170.38" y="-72.17" font-family="Times,serif" font-size="14.00">abc</text>
</g>
<!-- token&#45;&gt;space -->
<g id="edge21" class="edge">
<title>token&#45;&gt;space</title>
<path fill="none" stroke="royalblue" stroke-dasharray="5,2" d="M228.57,-109.76C296.41,-128.69 442.67,-182.09 404,-263.11 370.48,-333.35 277.81,-366.4 221.67,-379.98"/>
<polygon fill="royalblue" stroke="royalblue" points="220.59,-376.63 211.63,-382.29 222.16,-383.45 220.59,-376.63"/>
<text text-anchor="middle" x="225.82" y="-367.51" font-family="Times,serif" font-size="14.00">ws</text>
</g>
<!-- token&#45;&gt;string -->
<g id="edge22" class="edge">
<title>token&#45;&gt;string</title>
<path fill="none" stroke="seagreen" stroke-dasharray="5,2" d="M208.36,-118.37C215.33,-128.41 223.51,-141.88 228,-155.11 232.16,-167.38 244.25,-244.62 236,-263.11 230.1,-276.34 219.09,-287.64 208.16,-296.37"/>
<polygon fill="seagreen" stroke="seagreen" points="205.83,-293.75 199.91,-302.53 210.01,-299.36 205.83,-293.75"/>
<text text-anchor="middle" x="208.43" y="-282.98" font-family="Times,serif" font-size="14.00">&quot;</text>
</g>
<!-- token&#45;&gt;escape -->
<g id="edge23" class="edge">
<title>token&#45;&gt;escape</title>
<path fill="none" stroke="dimgray" stroke-dasharray="5,2" d="M219.41,-115.11C224.12,-125.53 221.39,-140.32 213.18,-152.22"/>
<polygon fill="dimgray" stroke="dimgray" points="210.45,-150.03 206.64,-159.92 215.79,-154.56 210.45,-150.03"/>
<text text-anchor="middle" x="211.41" y="-138.86" font-family="Times,serif" font-size="14.00">\</text>
</g>
<!-- token&#45;&gt;sep -->
<g id="edge24" class="edge">
<title>token&#45;&gt;sep</title>
<path fill="none" stroke="seagreen" stroke-dasharray="5,2" d="M177.15,-85.6C167.72,-76.57 156.6,-64.71 147.65,-54.28"/>
<polygon fill="seagreen" stroke="seagreen" points="150.1,-51.76 141.01,-46.31 144.72,-56.23 150.1,-51.76"/>
<text text-anchor="middle" x="157.29" y="-50.28" font-family="Times,serif" font-size="14.00">sep</text>
</g>
<!-- token&#45;&gt;token -->
<g id="edge25" class="edge">
<title>token&#45;&gt;token</title>
<path fill="none" stroke="dimgray" stroke-dasharray="5,2" d="M221.74,-113.87C236.58,-116.47 250.4,-112.22 250.4,-101.11 250.4,-92.6 242.3,-88.12 231.84,-87.65"/>
<polygon fill="dimgray" stroke="dimgray" points="231.48,-84.17 221.74,-88.35 231.96,-91.15 231.48,-84.17"/>
<text text-anchor="middle" x="237.49" y="-75.93" font-family="Times,serif" font-size="14.00">abc</text>
</g>
<!-- unquote&#45;&gt;space -->
<g id="edge26" class="edge">
<title>unquote&#45;&gt;space</title>
<path fill="none" stroke="royalblue" stroke-dasharray="5,2" d="M329.07,-263.03C319.3,-282.43 301.12,-314.24 278,-335.11 259.73,-351.6 235.38,-364.58 215.18,-373.56"/>
<polygon fill="royalblue" stroke="royalblue" points="213.74,-370.37 205.93,-377.52 216.5,-376.8 213.74,-370.37"/>
<text text-anchor="middle" x="217.92" y="-360.4" font-family="Times,serif" font-size="14.00">ws</text>
</g>
<!-- unquote&#45;&gt;string -->
<g id="edge27" class="edge">
<title>unquote&#45;&gt;string</title>
<path fill="none" stroke="seagreen" stroke-dasharray="5,2" d="M310.26,-260.23C284.38,-272.25 245.11,-289.44 215.83,-301.57"/>
<polygon fill="seagreen" stroke="seagreen" points="214.23,-298.44 206.31,-305.48 216.89,-304.92 214.23,-298.44"/>
<text text-anchor="middle" x="218.51" y="-288.54" font-family="Times,serif" font-size="14.00">&quot;</text>
</g>
<!-- unquote&#45;&gt;escape -->
<g id="edge28" class="edge">
<title>unquote&#45;&gt;escape</title>
<path fill="none" stroke="seagreen" stroke-dasharray="5,2" d="M306.91,-230.94C280.83,-219.53 242.98,-202.97 214.86,-190.67"/>
<polygon fill="seagreen" stroke="seagreen" points="215.91,-187.31 205.35,-186.51 213.11,-193.73 215.91,-187.31"/>
<text text-anchor="middle" x="223.34" y="-182.38" font-family="Times,serif" font-size="14.00">\</text>
</g>
<!-- unquote&#45;&gt;sep -->
<g id="edge29" class="edge">
<title>unquote&#45;&gt;sep</title>
<path fill="none" stroke="seagreen" stroke-dasharray="5,2" d="M333.45,-227.04C325.74,-194.31 304.42,-122.46 259,-83.11 232.58,-60.22 194.88,-46.18 167.42,-38.35"/>
<polygon fill="seagreen" stroke="seagreen" points="168.01,-34.89 157.44,-35.65 166.18,-41.65 168.01,-34.89"/>
<text text-anchor="middle" x="175.17" y="-28.87" font-family="Times,serif" font-size="14.00">sep</text>
</g>
<!-- unquote&#45;&gt;token -->
<g id="edge30" class="edge">
<title>unquote&#45;&gt;token</title>
<path fill="none" stroke="seagreen" stroke-dasharray="5,2" d="M327.63,-227.34C316.5,-208.38 296.57,-177.25 274,-155.11 260.45,-141.82 243.18,-129.69 228.33,-120.41"/>
<polygon fill="seagreen" stroke="seagreen" points="229.82,-117.21 219.45,-115.01 226.18,-123.19 229.82,-117.21"/>
<text text-anchor="middle" x="237.34" y="-113.29" font-family="Times,serif" font-size="14.00">abc</text>
</g>
</g>
</svg>
