<?xml version="1.0" encoding="UTF-8" standalone="no"?>
<!DOCTYPE svg PUBLIC "-//W3C//DTD SVG 1.1//EN"
 "http://www.w3.org/Graphics/SVG/1.1/DTD/svg11.dtd">
<!-- Generated by graphviz version 2.42.3 (20191010.1750)
 -->
<!-- Title: %3 Pages: 1 -->
<svg width="317pt" height="549pt"
 viewBox="0.00 0.00 317.25 548.57" xmlns="http://www.w3.org/2000/svg" xmlns:xlink="http://www.w3.org/1999/xlink">
<g id="graph0" class="graph" transform="scale(1 1) rotate(0) translate(4 544.57)">
<title>%3</title>
<polygon fill="white" stroke="transparent" points="-4,4 -4,-544.57 313.25,-544.57 313.25,4 -4,4"/>
<!-- space -->
<g id="node1" class="node">
<title>space</title>
<ellipse fill="none" stroke="black" cx="94" cy="-503.53" rx="37.09" ry="37.09"/>
<text text-anchor="middle" x="94" y="-499.83" font-family="Times,serif" font-size="14.00">space</text>
</g>
<!-- space&#45;&gt;space -->
<g id="edge1" class="edge">
<title>space&#45;&gt;space</title>
<path fill="none" stroke="gray" stroke-dasharray="5,2" d="M125.12,-523.97C138.07,-525.38 149.05,-518.57 149.05,-503.53 149.05,-492.6 143.25,-486.02 135.12,-483.77"/>
<polygon fill="gray" stroke="gray" points="135.34,-480.28 125.12,-483.08 134.86,-487.26 135.34,-480.28"/>
<text text-anchor="middle" x="141.92" y="-472.92" font-family="Times,serif" font-size="14.00">ws</text>
</g>
<!-- string -->
<g id="node2" class="node">
<title>string</title>
<ellipse fill="none" stroke="black" cx="160" cy="-392.13" rx="38.19" ry="38.19"/>
<text text-anchor="middle" x="160" y="-388.43" font-family="Times,serif" font-size="14.00">string</text>
</g>
<!-- space&#45;&gt;string -->
<g id="edge2" class="edge">
<title>space&#45;&gt;string</title>
<path fill="none" stroke="orange" stroke-dasharray="5,2" d="M112.74,-471.47C119.73,-459.88 127.78,-446.54 135.23,-434.19"/>
<polygon fill="orange" stroke="orange" points="138.36,-435.78 140.53,-425.41 132.36,-432.16 138.36,-435.78"/>
<text text-anchor="middle" x="138.61" y="-439.61" font-family="Times,serif" font-size="14.00">&quot;</text>
</g>
<!-- escape -->
<g id="node3" class="node">
<title>escape</title>
<ellipse fill="none" stroke="black" cx="267" cy="-42.25" rx="42.49" ry="42.49"/>
<text text-anchor="middle" x="267" y="-38.55" font-family="Times,serif" font-size="14.00">escape</text>
</g>
<!-- space&#45;&gt;escape -->
<g id="edge3" class="edge">
<title>space&#45;&gt;escape</title>
<path fill="none" stroke="orange" stroke-dasharray="5,2" d="M71.01,-474.06C43.18,-436.66 0,-367.83 0,-300.79 0,-300.79 0,-300.79 0,-226.79 0,-123.29 137.92,-73.76 215.51,-54.08"/>
<polygon fill="orange" stroke="orange" points="216.7,-57.39 225.57,-51.6 215.03,-50.59 216.7,-57.39"/>
<text text-anchor="middle" x="211.55" y="-59.18" font-family="Times,serif" font-size="14.00">\</text>
</g>
<!-- sep -->
<g id="node4" class="node">
<title>sep</title>
<ellipse fill="none" stroke="black" cx="149" cy="-147.14" rx="26.8" ry="26.8"/>
<text text-anchor="middle" x="149" y="-143.44" font-family="Times,serif" font-size="14.00">sep</text>
</g>
<!-- space&#45;&gt;sep -->
<g id="edge4" class="edge">
<title>space&#45;&gt;sep</title>
<path fill="none" stroke="orange" stroke-dasharray="5,2" d="M79.39,-469.45C66.77,-425.79 53.99,-346.87 70,-281.79 79.89,-241.57 104.27,-200.05 123.59,-174.17"/>
<polygon fill="orange" stroke="orange" points="126.55,-176.07 129.92,-166.02 121.02,-171.78 126.55,-176.07"/>
<text text-anchor="middle" x="125.92" y="-179.87" font-family="Times,serif" font-size="14.00">sep</text>
</g>
<!-- 0 -->
<g id="node5" class="node">
<title>0</title>
<ellipse fill="none" stroke="black" cx="267" cy="-227.79" rx="18" ry="18"/>
<text text-anchor="middle" x="267" y="-224.09" font-family="Times,serif" font-size="14.00">0</text>
</g>
<!-- space&#45;&gt;0 -->
<g id="edge5" class="edge">
<title>space&#45;&gt;0</title>
<path fill="none" stroke="orange" stroke-dasharray="5,2" d="M130.55,-496.86C168.01,-489.18 224.24,-471.36 252,-430.48 287.94,-377.56 275.66,-297.52 268.93,-255.97"/>
<polygon fill="orange" stroke="orange" points="272.38,-255.35 267.34,-246.04 265.47,-256.47 272.38,-255.35"/>
<text text-anchor="middle" x="277.44" y="-257.24" font-family="Times,serif" font-size="14.00">abc</text>
</g>
<!-- string&#45;&gt;string -->
<g id="edge6" class="edge">
<title>string&#45;&gt;string</title>
<path fill="none" stroke="gray" stroke-dasharray="5,2" d="M197.92,-397.85C208.37,-397.57 216.35,-395.67 216.35,-392.13 216.35,-389.87 213.07,-388.28 207.97,-387.35"/>
<polygon fill="gray" stroke="gray" points="208.2,-383.85 197.92,-386.42 207.56,-390.82 208.2,-383.85"/>
<text text-anchor="middle" x="214.87" y="-376.65" font-family="Times,serif" font-size="14.00">ws</text>
</g>
<!-- string&#45;&gt;string -->
<g id="edge9" class="edge">
<title>string&#45;&gt;string</title>
<path fill="none" stroke="gray" stroke-dasharray="5,2" d="M197.11,-403.2C216.64,-404.99 234.35,-401.3 234.35,-392.13 234.35,-384.62 222.43,-380.79 207.37,-380.64"/>
<polygon fill="gray" stroke="gray" points="206.95,-377.15 197.11,-381.07 207.24,-384.15 206.95,-377.15"/>
<text text-anchor="middle" x="213.08" y="-369.08" font-family="Times,serif" font-size="14.00">sep</text>
</g>
<!-- string&#45;&gt;string -->
<g id="edge10" class="edge">
<title>string&#45;&gt;string</title>
<path fill="none" stroke="gray" stroke-dasharray="5,2" d="M195.54,-407.06C223.58,-412.83 252.35,-407.86 252.35,-392.13 252.35,-378.32 230.12,-372.8 205.7,-375.59"/>
<polygon fill="gray" stroke="gray" points="204.86,-372.18 195.54,-377.21 205.97,-379.09 204.86,-372.18"/>
<text text-anchor="middle" x="210.45" y="-363.42" font-family="Times,serif" font-size="14.00">abc</text>
</g>
<!-- 1 -->
<g id="node6" class="node">
<title>1</title>
<ellipse fill="none" stroke="black" cx="106" cy="-299.79" rx="18" ry="18"/>
<text text-anchor="middle" x="106" y="-296.09" font-family="Times,serif" font-size="14.00">1</text>
</g>
<!-- string&#45;&gt;1 -->
<g id="edge7" class="edge">
<title>string&#45;&gt;1</title>
<path fill="none" stroke="gray" stroke-dasharray="5,2" d="M135.94,-361.55C128.57,-350.17 120.95,-337.28 115.11,-326.31"/>
<polygon fill="gray" stroke="gray" points="118.15,-324.57 110.49,-317.25 111.91,-327.75 118.15,-324.57"/>
<text text-anchor="middle" x="124.68" y="-324.63" font-family="Times,serif" font-size="14.00">&quot;</text>
</g>
<!-- 2 -->
<g id="node7" class="node">
<title>2</title>
<ellipse fill="none" stroke="black" cx="160" cy="-299.79" rx="18" ry="18"/>
<text text-anchor="middle" x="160" y="-296.09" font-family="Times,serif" font-size="14.00">2</text>
</g>
<!-- string&#45;&gt;2 -->
<g id="edge8" class="edge">
<title>string&#45;&gt;2</title>
<path fill="none" stroke="gray" stroke-dasharray="5,2" d="M130.06,-367.87C123.53,-350.56 125.39,-327.59 135.65,-313.52"/>
<polygon fill="gray" stroke="gray" points="138.16,-315.96 142.66,-306.37 133.16,-311.06 138.16,-315.96"/>
<text text-anchor="middle" x="136.67" y="-319.64" font-family="Times,serif" font-size="14.00">\</text>
</g>
<!-- escape&#45;&gt;0 -->
<g id="edge11" class="edge">
<title>escape&#45;&gt;0</title>
<path fill="none" stroke="gray" stroke-dasharray="5,2" d="M250.25,-81.11C244.79,-118.04 245.72,-173 253.04,-203.78"/>
<polygon fill="gray" stroke="gray" points="249.74,-204.96 255.89,-213.59 256.46,-203.01 249.74,-204.96"/>
<text text-anchor="middle" x="244.03" y="-196.35" font-family="Times,serif" font-size="14.00">ws</text>
</g>
<!-- escape&#45;&gt;0 -->
<g id="edge12" class="edge">
<title>escape&#45;&gt;0</title>
<path fill="none" stroke="gray" stroke-dasharray="5,2" d="M261.27,-84.15C259.68,-119.46 259.95,-169.44 262.06,-199.9"/>
<polygon fill="gray" stroke="gray" points="258.6,-200.5 262.92,-210.18 265.57,-199.92 258.6,-200.5"/>
<text text-anchor="middle" x="253.98" y="-190.86" font-family="Times,serif" font-size="14.00">&quot;</text>
</g>
<!-- escape&#45;&gt;0 -->
<g id="edge13" class="edge">
<title>escape&#45;&gt;0</title>
<path fill="none" stroke="gray" stroke-dasharray="5,2" d="M272.73,-84.15C274.32,-119.46 274.05,-169.44 271.94,-199.9"/>
<polygon fill="gray" stroke="gray" points="268.43,-199.92 271.08,-210.18 275.4,-200.5 268.43,-199.92"/>
<text text-anchor="middle" x="264.86" y="-189.58" font-family="Times,serif" font-size="14.00">\</text>
</g>
<!-- escape&#45;&gt;0 -->
<g id="edge14" class="edge">
<title>escape&#45;&gt;0</title>
<path fill="none" stroke="gray" stroke-dasharray="5,2" d="M283.75,-81.11C289.21,-118.04 288.28,-173 280.96,-203.78"/>
<polygon fill="gray" stroke="gray" points="277.54,-203.01 278.11,-213.59 284.26,-204.96 277.54,-203.01"/>
<text text-anchor="middle" x="275.36" y="-192.1" font-family="Times,serif" font-size="14.00">sep</text>
</g>
<!-- escape&#45;&gt;0 -->
<g id="edge15" class="edge">
<title>escape&#45;&gt;0</title>
<path fill="none" stroke="gray" stroke-dasharray="5,2" d="M293.35,-75.28C304.78,-114.16 302.97,-178.33 287.9,-209.17"/>
<polygon fill="gray" stroke="gray" points="284.77,-207.58 282.55,-217.94 290.75,-211.23 284.77,-207.58"/>
<text text-anchor="middle" x="284.56" y="-196.35" font-family="Times,serif" font-size="14.00">abc</text>
</g>
<!-- sep&#45;&gt;space -->
<g id="edge16" class="edge">
<title>sep&#45;&gt;space</title>
<path fill="none" stroke="blue" stroke-dasharray="5,2" d="M138.71,-171.82C123.79,-197.48 98.2,-240.33 88,-281.79 73.48,-340.79 82.63,-411.15 89.62,-456.31"/>
<polygon fill="blue" stroke="blue" points="86.2,-457.05 91.2,-466.39 93.11,-455.97 86.2,-457.05"/>
<text text-anchor="middle" x="81.16" y="-447.75" font-family="Times,serif" font-size="14.00">ws</text>
</g>
<!-- sep&#45;&gt;string -->
<g id="edge17" class="edge">
<title>sep&#45;&gt;string</title>
<path fill="none" stroke="darkgreen" stroke-dasharray="5,2" d="M160.18,-171.33C174.5,-203.88 196.4,-265.04 187,-317.79 185.27,-327.5 182.34,-337.62 179.04,-347.12"/>
<polygon fill="darkgreen" stroke="darkgreen" points="175.66,-346.17 175.49,-356.76 182.23,-348.59 175.66,-346.17"/>
<text text-anchor="middle" x="173.98" y="-335.13" font-family="Times,serif" font-size="14.00">&quot;</text>
</g>
<!-- sep&#45;&gt;escape -->
<g id="edge18" class="edge">
<title>sep&#45;&gt;escape</title>
<path fill="none" stroke="darkgreen" stroke-dasharray="5,2" d="M168.75,-128.92C184.85,-114.88 208.09,-94.61 227.93,-77.32"/>
<polygon fill="darkgreen" stroke="darkgreen" points="230.38,-79.82 235.62,-70.61 225.78,-74.54 230.38,-79.82"/>
<text text-anchor="middle" x="228.33" y="-83.36" font-family="Times,serif" font-size="14.00">\</text>
</g>
<!-- sep&#45;&gt;sep -->
<g id="edge19" class="edge">
<title>sep&#45;&gt;sep</title>
<path fill="none" stroke="darkgreen" stroke-dasharray="5,2" d="M171.51,-161.61C183.15,-163.84 193.65,-159.02 193.65,-147.14 193.65,-138.98 188.69,-134.14 181.81,-132.65"/>
<polygon fill="darkgreen" stroke="darkgreen" points="181.51,-129.15 171.51,-132.67 181.52,-136.15 181.51,-129.15"/>
<text text-anchor="middle" x="187.81" y="-121.33" font-family="Times,serif" font-size="14.00">sep</text>
</g>
<!-- sep&#45;&gt;0 -->
<g id="edge20" class="edge">
<title>sep&#45;&gt;0</title>
<path fill="none" stroke="darkgreen" stroke-dasharray="5,2" d="M172.55,-160.46C194.04,-173.46 225.23,-194.1 245.92,-208.9"/>
<polygon fill="darkgreen" stroke="darkgreen" points="243.94,-211.79 254.09,-214.84 248.06,-206.13 243.94,-211.79"/>
<text text-anchor="middle" x="236.42" y="-207.69" font-family="Times,serif" font-size="14.00">abc</text>
</g>
<!-- 0&#45;&gt;space -->
<g id="edge21" class="edge">
<title>0&#45;&gt;space</title>
<path fill="none" stroke="blue" stroke-dasharray="5,2" d="M275.99,-243.58C290.32,-279.3 309.96,-371.65 270,-430.48 241.48,-472.47 182.93,-490.13 141.08,-497.47"/>
<polygon fill="blue" stroke="blue" points="140.41,-494.03 131.1,-499.08 141.53,-500.94 140.41,-494.03"/>
<text text-anchor="middle" x="145.99" y="-485.27" font-family="Times,serif" font-size="14.00">ws</text>
</g>
<!-- 0&#45;&gt;string -->
<g id="edge22" class="edge">
<title>0&#45;&gt;string</title>
<path fill="none" stroke="darkgreen" stroke-dasharray="5,2" d="M259.91,-244.44C251.4,-262.64 236.23,-293.33 220,-317.79 211.58,-330.49 201.39,-343.6 191.83,-355.16"/>
<polygon fill="darkgreen" stroke="darkgreen" points="189.08,-352.99 185.33,-362.89 194.44,-357.49 189.08,-352.99"/>
<text text-anchor="middle" x="190" y="-341.81" font-family="Times,serif" font-size="14.00">&quot;</text>
</g>
<!-- 0&#45;&gt;escape -->
<g id="edge23" class="edge">
<title>0&#45;&gt;escape</title>
<path fill="none" stroke="gray" stroke-dasharray="5,2" d="M251.45,-217.94C233.02,-194.35 228.59,-128.83 238.16,-85.08"/>
<polygon fill="gray" stroke="gray" points="241.57,-85.83 240.65,-75.28 234.79,-84.11 241.57,-85.83"/>
<text text-anchor="middle" x="244" y="-89.26" font-family="Times,serif" font-size="14.00">\</text>
</g>
<!-- 0&#45;&gt;sep -->
<g id="edge24" class="edge">
<title>0&#45;&gt;sep</title>
<path fill="none" stroke="darkgreen" stroke-dasharray="5,2" d="M251.01,-218.96C232.02,-207.93 200.53,-187.38 177.45,-171.24"/>
<polygon fill="darkgreen" stroke="darkgreen" points="179.24,-168.22 169.06,-165.3 175.2,-173.94 179.24,-168.22"/>
<text text-anchor="middle" x="186.77" y="-164.82" font-family="Times,serif" font-size="14.00">sep</text>
</g>
<!-- 0&#45;&gt;0 -->
<g id="edge25" class="edge">
<title>0&#45;&gt;0</title>
<path fill="none" stroke="gray" stroke-dasharray="5,2" d="M281.04,-239.54C291.91,-243.94 303,-240.02 303,-227.79 303,-219.38 297.76,-214.9 290.95,-214.35"/>
<polygon fill="gray" stroke="gray" points="290.31,-210.9 281.04,-216.03 291.49,-217.8 290.31,-210.9"/>
<text text-anchor="middle" x="295.85" y="-202.1" font-family="Times,serif" font-size="14.00">abc</text>
</g>
<!-- 1&#45;&gt;space -->
<g id="edge26" class="edge">
<title>1&#45;&gt;space</title>
<path fill="none" stroke="blue" stroke-dasharray="5,2" d="M104.98,-318C103.17,-348.33 99.37,-412.25 96.75,-456.28"/>
<polygon fill="blue" stroke="blue" points="93.25,-456.27 96.15,-466.46 100.23,-456.69 93.25,-456.27"/>
<text text-anchor="middle" x="89.52" y="-446.02" font-family="Times,serif" font-size="14.00">ws</text>
</g>
<!-- 1&#45;&gt;string -->
<g id="edge27" class="edge">
<title>1&#45;&gt;string</title>
<path fill="none" stroke="darkgreen" stroke-dasharray="5,2" d="M118.39,-313.4C125.07,-322.37 133.25,-334.99 140.64,-347.46"/>
<polygon fill="darkgreen" stroke="darkgreen" points="137.82,-349.57 145.86,-356.46 143.87,-346.06 137.82,-349.57"/>
<text text-anchor="middle" x="131.1" y="-342.46" font-family="Times,serif" font-size="14.00">&quot;</text>
</g>
<!-- 1&#45;&gt;escape -->
<g id="edge28" class="edge">
<title>1&#45;&gt;escape</title>
<path fill="none" stroke="darkgreen" stroke-dasharray="5,2" d="M101.49,-282.15C93.41,-248.53 80.19,-171.4 113,-120.49 135.96,-84.87 180.67,-65.02 216.03,-54.39"/>
<polygon fill="darkgreen" stroke="darkgreen" points="217.07,-57.74 225.73,-51.63 215.16,-51 217.07,-57.74"/>
<text text-anchor="middle" x="212.12" y="-59.71" font-family="Times,serif" font-size="14.00">\</text>
</g>
<!-- 1&#45;&gt;sep -->
<g id="edge29" class="edge">
<title>1&#45;&gt;sep</title>
<path fill="none" stroke="darkgreen" stroke-dasharray="5,2" d="M110.68,-282.38C117.48,-258.57 130.23,-213.88 139.15,-182.63"/>
<polygon fill="darkgreen" stroke="darkgreen" points="142.52,-183.58 141.9,-173 135.79,-181.66 142.52,-183.58"/>
<text text-anchor="middle" x="144.74" y="-187.08" font-family="Times,serif" font-size="14.00">sep</text>
</g>
<!-- 1&#45;&gt;0 -->
<g id="edge30" class="edge">
<title>1&#45;&gt;0</title>
<path fill="none" stroke="darkgreen" stroke-dasharray="5,2" d="M120.57,-288.93C124.52,-286.45 128.85,-283.89 133,-281.79 169.01,-263.53 212.87,-247.23 240.37,-237.67"/>
<polygon fill="darkgreen" stroke="darkgreen" points="241.74,-240.91 250.06,-234.35 239.47,-234.28 241.74,-240.91"/>
<text text-anchor="middle" x="237.1" y="-243.14" font-family="Times,serif" font-size="14.00">abc</text>
</g>
<!-- 2&#45;&gt;string -->
<g id="edge31" class="edge">
<title>2&#45;&gt;string</title>
<path fill="none" stroke="gray" stroke-dasharray="5,2" d="M146.13,-311.93C141.56,-321.26 139.45,-335.19 139.79,-348.78"/>
<polygon fill="gray" stroke="gray" points="136.31,-349.3 140.52,-359.03 143.3,-348.8 136.31,-349.3"/>
<text text-anchor="middle" x="131.76" y="-339.6" font-family="Times,serif" font-size="14.00">ws</text>
</g>
<!-- 2&#45;&gt;string -->
<g id="edge32" class="edge">
<title>2&#45;&gt;string</title>
<path fill="none" stroke="gray" stroke-dasharray="5,2" d="M154.66,-317.15C153.78,-324.82 153.31,-334.39 153.26,-344.07"/>
<polygon fill="gray" stroke="gray" points="149.76,-344.16 153.35,-354.13 156.76,-344.09 149.76,-344.16"/>
<text text-anchor="middle" x="145.59" y="-334.18" font-family="Times,serif" font-size="14.00">&quot;</text>
</g>
<!-- 2&#45;&gt;string -->
<g id="edge33" class="edge">
<title>2&#45;&gt;string</title>
<path fill="none" stroke="gray" stroke-dasharray="5,2" d="M165.34,-317.15C166.22,-324.82 166.69,-334.39 166.74,-344.07"/>
<polygon fill="gray" stroke="gray" points="163.24,-344.09 166.65,-354.13 170.24,-344.16 163.24,-344.09"/>
<text text-anchor="middle" x="159.2" y="-334.04" font-family="Times,serif" font-size="14.00">\</text>
</g>
<!-- 2&#45;&gt;string -->
<g id="edge34" class="edge">
<title>2&#45;&gt;string</title>
<path fill="none" stroke="gray" stroke-dasharray="5,2" d="M173.87,-311.93C178.44,-321.26 180.55,-335.19 180.21,-348.78"/>
<polygon fill="gray" stroke="gray" points="176.7,-348.8 179.48,-359.03 183.69,-349.3 176.7,-348.8"/>
<text text-anchor="middle" x="173.06" y="-338.51" font-family="Times,serif" font-size="14.00">sep</text>
</g>
<!-- 2&#45;&gt;string -->
<g id="edge35" class="edge">
<title>2&#45;&gt;string</title>
<path fill="none" stroke="gray" stroke-dasharray="5,2" d="M177.34,-306.37C191.14,-316.58 196.24,-338.98 192.63,-358.19"/>
<polygon fill="gray" stroke="gray" points="189.24,-357.3 189.94,-367.87 195.99,-359.17 189.24,-357.3"/>
<text text-anchor="middle" x="186.97" y="-346.41" font-family="Times,serif" font-size="14.00">abc</text>
</g>
</g>
</svg>
