<?xml version="1.0" encoding="UTF-8" standalone="no"?>
<!DOCTYPE svg PUBLIC "-//W3C//DTD SVG 1.1//EN"
 "http://www.w3.org/Graphics/SVG/1.1/DTD/svg11.dtd">
<!-- Generated by graphviz version 2.42.3 (20191010.1750)
 -->
<!-- Title: %3 Pages: 1 -->
<svg width="686pt" height="558pt"
 viewBox="0.00 0.00 686.26 557.56" xmlns="http://www.w3.org/2000/svg" xmlns:xlink="http://www.w3.org/1999/xlink">
<g id="graph0" class="graph" transform="scale(1 1) rotate(0) translate(4 553.56)">
<title>%3</title>
<polygon fill="white" stroke="transparent" points="-4,4 -4,-553.56 682.26,-553.56 682.26,4 -4,4"/>
<!-- libmo -->
<g id="node1" class="node">
<title>libmo</title>
<ellipse fill="none" stroke="black" cx="475.26" cy="-513.17" rx="36.29" ry="36.29"/>
<text text-anchor="middle" x="475.26" y="-509.47" font-family="Times,serif" font-size="14.00">libmo</text>
</g>
<!-- libmo&#45;&gt;libmo -->
<g id="edge1" class="edge">
<title>libmo&#45;&gt;libmo</title>
<path fill="none" stroke="orange" stroke-dasharray="5,2" d="M511.09,-520.02C521.55,-519.78 529.65,-517.5 529.65,-513.17 529.65,-510.39 526.33,-508.46 521.19,-507.36"/>
<polygon fill="orange" stroke="orange" points="521.4,-503.86 511.09,-506.31 520.68,-510.83 521.4,-503.86"/>
<text text-anchor="middle" x="528.1" y="-496.73" font-family="Times,serif" font-size="14.00">WS</text>
</g>
<!-- libmo&#45;&gt;libmo -->
<g id="edge4" class="edge">
<title>libmo&#45;&gt;libmo</title>
<path fill="none" stroke="red" stroke-dasharray="5,2" d="M509.52,-526.16C529.27,-528.81 547.65,-524.48 547.65,-513.17 547.65,-503.8 535.05,-499.22 519.5,-499.42"/>
<polygon fill="red" stroke="red" points="519.23,-495.93 509.52,-500.17 519.75,-502.91 519.23,-495.93"/>
<text text-anchor="middle" x="525.22" y="-487.67" font-family="Times,serif" font-size="14.00">\</text>
</g>
<!-- libmo&#45;&gt;libmo -->
<g id="edge6" class="edge">
<title>libmo&#45;&gt;libmo</title>
<path fill="none" stroke="orange" stroke-dasharray="5,2" d="M507.7,-530.39C535.86,-538.24 565.65,-532.5 565.65,-513.17 565.65,-496.1 542.43,-489.62 517.61,-493.74"/>
<polygon fill="orange" stroke="orange" points="516.7,-490.36 507.7,-495.95 518.22,-497.2 516.7,-490.36"/>
<text text-anchor="middle" x="521.97" y="-481.28" font-family="Times,serif" font-size="14.00">LF</text>
</g>
<!-- paren -->
<g id="node2" class="node">
<title>paren</title>
<ellipse fill="none" stroke="black" cx="475.26" cy="-403.07" rx="37.89" ry="37.89"/>
<text text-anchor="middle" x="475.26" y="-399.37" font-family="Times,serif" font-size="14.00">paren</text>
</g>
<!-- libmo&#45;&gt;paren -->
<g id="edge2" class="edge">
<title>libmo&#45;&gt;paren</title>
<path fill="none" stroke="orange" stroke-dasharray="5,2" d="M456.84,-481.77C455.02,-470.76 454.56,-458.11 455.45,-446.27"/>
<polygon fill="orange" stroke="orange" points="458.95,-446.45 456.58,-436.13 451.99,-445.68 458.95,-446.45"/>
<text text-anchor="middle" x="462.33" y="-449.48" font-family="Times,serif" font-size="14.00">()</text>
</g>
<!-- string -->
<g id="node3" class="node">
<title>string</title>
<ellipse fill="none" stroke="black" cx="61.26" cy="-182.24" rx="38.19" ry="38.19"/>
<text text-anchor="middle" x="61.26" y="-178.54" font-family="Times,serif" font-size="14.00">string</text>
</g>
<!-- libmo&#45;&gt;string -->
<g id="edge3" class="edge">
<title>libmo&#45;&gt;string</title>
<path fill="none" stroke="orange" stroke-dasharray="5,2" d="M438.67,-510.44C384.31,-506.18 281.96,-491.46 214.26,-440.77 141.11,-386 92.85,-287.65 72.01,-229.63"/>
<polygon fill="orange" stroke="orange" points="75.25,-228.29 68.67,-219.98 68.64,-230.58 75.25,-228.29"/>
<text text-anchor="middle" x="81.2" y="-229.21" font-family="Times,serif" font-size="14.00">&quot;</text>
</g>
<!-- comment -->
<g id="node4" class="node">
<title>comment</title>
<ellipse fill="none" stroke="black" cx="309.26" cy="-53.95" rx="53.89" ry="53.89"/>
<text text-anchor="middle" x="309.26" y="-50.25" font-family="Times,serif" font-size="14.00">comment</text>
</g>
<!-- libmo&#45;&gt;comment -->
<g id="edge5" class="edge">
<title>libmo&#45;&gt;comment</title>
<path fill="none" stroke="orange" stroke-dasharray="5,2" d="M441.75,-498.13C390.56,-472.43 296.22,-412.72 265.26,-329.38 238.46,-257.23 258.92,-167.89 280.18,-111.14"/>
<polygon fill="orange" stroke="orange" points="283.52,-112.22 283.87,-101.63 276.99,-109.69 283.52,-112.22"/>
<text text-anchor="middle" x="285.07" y="-115.89" font-family="Times,serif" font-size="14.00">;</text>
</g>
<!-- hash -->
<g id="node5" class="node">
<title>hash</title>
<ellipse fill="none" stroke="black" cx="642.26" cy="-53.95" rx="32.49" ry="32.49"/>
<text text-anchor="middle" x="642.26" y="-50.25" font-family="Times,serif" font-size="14.00">hash</text>
</g>
<!-- libmo&#45;&gt;hash -->
<g id="edge7" class="edge">
<title>libmo&#45;&gt;hash</title>
<path fill="none" stroke="orange" stroke-dasharray="5,2" d="M487.53,-478.63C499.31,-468.08 512.34,-455.32 521.26,-440.77 591.49,-326.22 598.65,-159.75 618.66,-88.9"/>
<polygon fill="orange" stroke="orange" points="622.06,-89.75 621.71,-79.16 615.38,-87.66 622.06,-89.75"/>
<text text-anchor="middle" x="624.09" y="-93.3" font-family="Times,serif" font-size="14.00">#</text>
</g>
<!-- quote -->
<g id="node6" class="node">
<title>quote</title>
<ellipse fill="none" stroke="black" cx="468.26" cy="-182.24" rx="37.09" ry="37.09"/>
<text text-anchor="middle" x="468.26" y="-178.54" font-family="Times,serif" font-size="14.00">quote</text>
</g>
<!-- libmo&#45;&gt;quote -->
<g id="edge8" class="edge">
<title>libmo&#45;&gt;quote</title>
<path fill="none" stroke="orange" stroke-dasharray="5,2" d="M499.79,-485.77C511.66,-473.57 524.6,-457.97 531.26,-440.77 543.35,-409.52 536.59,-398.46 531.26,-365.38 523.26,-315.76 500.5,-262.73 484.42,-226.76"/>
<polygon fill="orange" stroke="orange" points="487.57,-225.23 480.28,-217.54 481.18,-228.1 487.57,-225.23"/>
<text text-anchor="middle" x="493.9" y="-225.61" font-family="Times,serif" font-size="14.00">&#39;</text>
</g>
<!-- token -->
<g id="node7" class="node">
<title>token</title>
<ellipse fill="none" stroke="black" cx="319.26" cy="-292.98" rx="36.29" ry="36.29"/>
<text text-anchor="middle" x="319.26" y="-289.28" font-family="Times,serif" font-size="14.00">token</text>
</g>
<!-- libmo&#45;&gt;token -->
<g id="edge9" class="edge">
<title>libmo&#45;&gt;token</title>
<path fill="none" stroke="orange" stroke-dasharray="5,2" d="M446.61,-490.05C412.59,-454.29 360.52,-383.18 333.6,-337.14"/>
<polygon fill="orange" stroke="orange" points="336.55,-335.24 328.56,-328.28 330.46,-338.71 336.55,-335.24"/>
<text text-anchor="middle" x="343.24" y="-335" font-family="Times,serif" font-size="14.00">letter</text>
</g>
<!-- paren&#45;&gt;libmo -->
<g id="edge37" class="edge">
<title>paren&#45;&gt;libmo</title>
<path fill="none" stroke="blue" stroke-dasharray="5,2" d="M468.84,-440.48C468.51,-448.97 468.42,-458.11 468.59,-466.93"/>
<polygon fill="blue" stroke="blue" points="465.09,-467.18 468.89,-477.07 472.09,-466.97 465.09,-467.18"/>
<text text-anchor="middle" x="460.8" y="-457.29" font-family="Times,serif" font-size="14.00">WS</text>
</g>
<!-- paren&#45;&gt;libmo -->
<g id="edge40" class="edge">
<title>paren&#45;&gt;libmo</title>
<path fill="none" stroke="red" stroke-dasharray="5,2" d="M481.68,-440.48C482.01,-448.97 482.09,-458.11 481.93,-466.93"/>
<polygon fill="red" stroke="red" points="478.42,-466.97 481.62,-477.07 485.42,-467.18 478.42,-466.97"/>
<text text-anchor="middle" x="474.51" y="-456.84" font-family="Times,serif" font-size="14.00">\</text>
</g>
<!-- paren&#45;&gt;libmo -->
<g id="edge42" class="edge">
<title>paren&#45;&gt;libmo</title>
<path fill="none" stroke="blue" stroke-dasharray="5,2" d="M493.94,-436.13C495.62,-447.3 495.95,-459.97 494.92,-471.73"/>
<polygon fill="blue" stroke="blue" points="491.44,-471.41 493.67,-481.77 498.38,-472.28 491.44,-471.41"/>
<text text-anchor="middle" x="488.14" y="-460.94" font-family="Times,serif" font-size="14.00">LF</text>
</g>
<!-- paren&#45;&gt;paren -->
<g id="edge38" class="edge">
<title>paren&#45;&gt;paren</title>
<path fill="none" stroke="darkgreen" stroke-dasharray="5,2" d="M507.03,-423.55C520.01,-424.83 530.95,-418.01 530.95,-403.07 530.95,-392.23 525.17,-385.66 517.04,-383.37"/>
<polygon fill="darkgreen" stroke="darkgreen" points="517.27,-379.87 507.03,-382.6 516.73,-386.85 517.27,-379.87"/>
<text text-anchor="middle" x="523.88" y="-372.56" font-family="Times,serif" font-size="14.00">()</text>
</g>
<!-- paren&#45;&gt;string -->
<g id="edge39" class="edge">
<title>paren&#45;&gt;string</title>
<path fill="none" stroke="darkgreen" stroke-dasharray="5,2" d="M438.89,-391.98C397.72,-379.85 329.22,-357.59 274.26,-329.38 208.94,-295.85 140.05,-245.44 98.87,-213.45"/>
<polygon fill="darkgreen" stroke="darkgreen" points="100.8,-210.51 90.76,-207.11 96.49,-216.02 100.8,-210.51"/>
<text text-anchor="middle" x="108.3" y="-207.46" font-family="Times,serif" font-size="14.00">&quot;</text>
</g>
<!-- paren&#45;&gt;comment -->
<g id="edge41" class="edge">
<title>paren&#45;&gt;comment</title>
<path fill="none" stroke="darkgreen" stroke-dasharray="5,2" d="M459.34,-368.79C431.01,-309.55 371.55,-185.21 336.57,-112.07"/>
<polygon fill="darkgreen" stroke="darkgreen" points="339.7,-110.48 332.22,-102.97 333.38,-113.5 339.7,-110.48"/>
<text text-anchor="middle" x="346.12" y="-110.71" font-family="Times,serif" font-size="14.00">;</text>
</g>
<!-- paren&#45;&gt;hash -->
<g id="edge43" class="edge">
<title>paren&#45;&gt;hash</title>
<path fill="none" stroke="darkgreen" stroke-dasharray="5,2" d="M487.08,-367.22C504,-330.88 534.55,-272.15 559.26,-220.58 580.53,-176.19 603.41,-124.26 620.06,-90.54"/>
<polygon fill="darkgreen" stroke="darkgreen" points="623.22,-92.04 624.58,-81.54 616.96,-88.9 623.22,-92.04"/>
<text text-anchor="middle" x="624.06" y="-95.83" font-family="Times,serif" font-size="14.00">#</text>
</g>
<!-- paren&#45;&gt;quote -->
<g id="edge44" class="edge">
<title>paren&#45;&gt;quote</title>
<path fill="none" stroke="darkgreen" stroke-dasharray="5,2" d="M463.9,-366.91C458.68,-329.27 456.45,-269.41 458.53,-228.33"/>
<polygon fill="darkgreen" stroke="darkgreen" points="462.03,-228.51 459.16,-218.31 455.04,-228.07 462.03,-228.51"/>
<text text-anchor="middle" x="465.74" y="-231.36" font-family="Times,serif" font-size="14.00">&#39;</text>
</g>
<!-- paren&#45;&gt;token -->
<g id="edge45" class="edge">
<title>paren&#45;&gt;token</title>
<path fill="none" stroke="darkgreen" stroke-dasharray="5,2" d="M442.82,-383.25C417.13,-366.6 381.44,-342.06 354.96,-322.92"/>
<polygon fill="darkgreen" stroke="darkgreen" points="356.85,-319.97 346.71,-316.91 352.73,-325.62 356.85,-319.97"/>
<text text-anchor="middle" x="364.38" y="-316.66" font-family="Times,serif" font-size="14.00">letter</text>
</g>
<!-- string&#45;&gt;libmo -->
<g id="edge21" class="edge">
<title>string&#45;&gt;libmo</title>
<path fill="none" stroke="blue" stroke-dasharray="5,2" d="M78.68,-216.82C103.46,-272.03 153.4,-381.73 232.26,-440.77 291.29,-484.97 376.67,-501.82 429.03,-508.24"/>
<polygon fill="blue" stroke="blue" points="428.71,-511.72 439.05,-509.39 429.51,-504.77 428.71,-511.72"/>
<text text-anchor="middle" x="421.97" y="-511.39" font-family="Times,serif" font-size="14.00">&quot;</text>
</g>
<!-- string&#45;&gt;string -->
<g id="edge19" class="edge">
<title>string&#45;&gt;string</title>
<path fill="none" stroke="gray" stroke-dasharray="5,2" d="M99.71,-185.16C109.89,-184.99 117.6,-184.02 117.6,-182.24 117.6,-181.12 114.59,-180.33 109.84,-179.84"/>
<polygon fill="gray" stroke="gray" points="109.88,-176.34 99.71,-179.32 109.51,-183.33 109.88,-176.34"/>
<text text-anchor="middle" x="116.39" y="-168.87" font-family="Times,serif" font-size="14.00">WS</text>
</g>
<!-- string&#45;&gt;string -->
<g id="edge20" class="edge">
<title>string&#45;&gt;string</title>
<path fill="none" stroke="gray" stroke-dasharray="5,2" d="M99.51,-187.96C118.59,-188.75 135.6,-186.84 135.6,-182.24 135.6,-178.5 124.37,-176.54 109.92,-176.36"/>
<polygon fill="gray" stroke="gray" points="109.45,-172.86 99.51,-176.52 109.56,-179.86 109.45,-172.86"/>
<text text-anchor="middle" x="115.7" y="-164.96" font-family="Times,serif" font-size="14.00">()</text>
</g>
<!-- string&#45;&gt;string -->
<g id="edge23" class="edge">
<title>string&#45;&gt;string</title>
<path fill="none" stroke="gray" stroke-dasharray="5,2" d="M99.2,-190.12C126.45,-192.69 153.6,-190.06 153.6,-182.24 153.6,-175.39 132.82,-172.52 109.36,-173.63"/>
<polygon fill="gray" stroke="gray" points="108.93,-170.15 99.2,-174.35 109.42,-177.13 108.93,-170.15"/>
<text text-anchor="middle" x="114.94" y="-161.91" font-family="Times,serif" font-size="14.00">;</text>
</g>
<!-- string&#45;&gt;string -->
<g id="edge24" class="edge">
<title>string&#45;&gt;string</title>
<path fill="none" stroke="gray" stroke-dasharray="5,2" d="M98.57,-191.77C133.6,-196.71 171.6,-193.53 171.6,-182.24 171.6,-172.05 140.66,-168.46 108.88,-171.49"/>
<polygon fill="gray" stroke="gray" points="108.09,-168.06 98.57,-172.71 108.91,-175.01 108.09,-168.06"/>
<text text-anchor="middle" x="113.88" y="-159.54" font-family="Times,serif" font-size="14.00">LF</text>
</g>
<!-- string&#45;&gt;string -->
<g id="edge25" class="edge">
<title>string&#45;&gt;string</title>
<path fill="none" stroke="gray" stroke-dasharray="5,2" d="M98.37,-193.11C140.72,-200.71 189.6,-197.08 189.6,-182.24 189.6,-168.55 148.06,-164.4 108.39,-169.79"/>
<polygon fill="gray" stroke="gray" points="107.71,-166.35 98.37,-171.36 108.8,-173.27 107.71,-166.35"/>
<text text-anchor="middle" x="113.31" y="-157.61" font-family="Times,serif" font-size="14.00">#</text>
</g>
<!-- string&#45;&gt;string -->
<g id="edge26" class="edge">
<title>string&#45;&gt;string</title>
<path fill="none" stroke="gray" stroke-dasharray="5,2" d="M98,-194.17C147.46,-204.72 207.6,-200.74 207.6,-182.24 207.6,-164.96 155.18,-160.35 107.98,-168.4"/>
<polygon fill="gray" stroke="gray" points="107.17,-164.99 98,-170.31 108.48,-171.86 107.17,-164.99"/>
<text text-anchor="middle" x="112.59" y="-156.07" font-family="Times,serif" font-size="14.00">&#39;</text>
</g>
<!-- string&#45;&gt;string -->
<g id="edge27" class="edge">
<title>string&#45;&gt;string</title>
<path fill="none" stroke="gray" stroke-dasharray="5,2" d="M97.58,-195.01C153.97,-208.73 225.6,-204.47 225.6,-182.24 225.6,-161.3 162.12,-156.31 107.63,-167.24"/>
<polygon fill="gray" stroke="gray" points="106.59,-163.89 97.58,-169.47 108.1,-170.72 106.59,-163.89"/>
<text text-anchor="middle" x="111.86" y="-154.81" font-family="Times,serif" font-size="14.00">letter</text>
</g>
<!-- escape -->
<g id="node8" class="node">
<title>escape</title>
<ellipse fill="none" stroke="black" cx="61.26" cy="-53.95" rx="42.49" ry="42.49"/>
<text text-anchor="middle" x="61.26" y="-50.25" font-family="Times,serif" font-size="14.00">escape</text>
</g>
<!-- string&#45;&gt;escape -->
<g id="edge22" class="edge">
<title>string&#45;&gt;escape</title>
<path fill="none" stroke="gray" stroke-dasharray="5,2" d="M24.83,-170.03C-3.58,-149.04 -7.1,-103.49 14.27,-76.41"/>
<polygon fill="gray" stroke="gray" points="16.98,-78.64 21.33,-68.98 11.9,-73.82 16.98,-78.64"/>
<text text-anchor="middle" x="15.62" y="-82.35" font-family="Times,serif" font-size="14.00">\</text>
</g>
<!-- comment&#45;&gt;libmo -->
<g id="edge51" class="edge">
<title>comment&#45;&gt;libmo</title>
<path fill="none" stroke="blue" stroke-dasharray="5,2" d="M295.26,-106.16C278.18,-162.56 255.66,-255.09 283.26,-329.38 310.7,-403.26 387.96,-458.57 435.8,-488.08"/>
<polygon fill="blue" stroke="blue" points="434.01,-491.08 444.37,-493.28 437.64,-485.1 434.01,-491.08"/>
<text text-anchor="middle" x="426.48" y="-487.62" font-family="Times,serif" font-size="14.00">LF</text>
</g>
<!-- comment&#45;&gt;comment -->
<g id="edge46" class="edge">
<title>comment&#45;&gt;comment</title>
<path fill="none" stroke="gray" stroke-dasharray="5,2" d="M363.22,-56.81C373.74,-56.48 381.2,-55.52 381.2,-53.95 381.2,-52.96 378.29,-52.22 373.53,-51.72"/>
<polygon fill="gray" stroke="gray" points="373.42,-48.2 363.22,-51.08 372.99,-55.19 373.42,-48.2"/>
<text text-anchor="middle" x="379.97" y="-40.79" font-family="Times,serif" font-size="14.00">WS</text>
</g>
<!-- comment&#45;&gt;comment -->
<g id="edge47" class="edge">
<title>comment&#45;&gt;comment</title>
<path fill="none" stroke="gray" stroke-dasharray="5,2" d="M363.26,-59.94C383.02,-60.1 399.2,-58.1 399.2,-53.95 399.2,-50.54 388.31,-48.58 373.49,-48.08"/>
<polygon fill="gray" stroke="gray" points="373.3,-44.57 363.26,-47.95 373.22,-51.57 373.3,-44.57"/>
<text text-anchor="middle" x="379.66" y="-36.84" font-family="Times,serif" font-size="14.00">()</text>
</g>
<!-- comment&#45;&gt;comment -->
<g id="edge48" class="edge">
<title>comment&#45;&gt;comment</title>
<path fill="none" stroke="gray" stroke-dasharray="5,2" d="M362.57,-62.57C391.16,-64.04 417.2,-61.16 417.2,-53.95 417.2,-47.6 397.09,-44.61 372.81,-44.97"/>
<polygon fill="gray" stroke="gray" points="372.45,-41.48 362.57,-45.32 372.69,-48.48 372.45,-41.48"/>
<text text-anchor="middle" x="378.63" y="-33.47" font-family="Times,serif" font-size="14.00">&quot;</text>
</g>
<!-- comment&#45;&gt;comment -->
<g id="edge49" class="edge">
<title>comment&#45;&gt;comment</title>
<path fill="none" stroke="gray" stroke-dasharray="5,2" d="M362.32,-64.77C399.04,-68.05 435.2,-64.45 435.2,-53.95 435.2,-44.43 405.5,-40.57 372.6,-42.38"/>
<polygon fill="gray" stroke="gray" points="372.04,-38.91 362.32,-43.12 372.54,-45.89 372.04,-38.91"/>
<text text-anchor="middle" x="378.04" y="-30.66" font-family="Times,serif" font-size="14.00">\</text>
</g>
<!-- comment&#45;&gt;comment -->
<g id="edge50" class="edge">
<title>comment&#45;&gt;comment</title>
<path fill="none" stroke="gray" stroke-dasharray="5,2" d="M362.03,-66.61C406.55,-72.11 453.2,-67.89 453.2,-53.95 453.2,-41.06 413.38,-36.48 372.22,-40.19"/>
<polygon fill="gray" stroke="gray" points="371.6,-36.74 362.03,-41.28 372.35,-43.7 371.6,-36.74"/>
<text text-anchor="middle" x="377.45" y="-28.28" font-family="Times,serif" font-size="14.00">;</text>
</g>
<!-- comment&#45;&gt;comment -->
<g id="edge52" class="edge">
<title>comment&#45;&gt;comment</title>
<path fill="none" stroke="gray" stroke-dasharray="5,2" d="M361.5,-68.12C413.59,-76.2 471.2,-71.48 471.2,-53.95 471.2,-37.54 420.78,-32.35 371.62,-38.37"/>
<polygon fill="gray" stroke="gray" points="370.92,-34.93 361.5,-39.77 371.89,-41.86 370.92,-34.93"/>
<text text-anchor="middle" x="376.62" y="-26.3" font-family="Times,serif" font-size="14.00">#</text>
</g>
<!-- comment&#45;&gt;comment -->
<g id="edge53" class="edge">
<title>comment&#45;&gt;comment</title>
<path fill="none" stroke="gray" stroke-dasharray="5,2" d="M361.3,-69.45C420.66,-80.28 489.2,-75.11 489.2,-53.95 489.2,-33.98 428.21,-28.25 371.46,-36.76"/>
<polygon fill="gray" stroke="gray" points="370.59,-33.35 361.3,-38.44 371.73,-40.26 370.59,-33.35"/>
<text text-anchor="middle" x="376.14" y="-24.57" font-family="Times,serif" font-size="14.00">&#39;</text>
</g>
<!-- comment&#45;&gt;comment -->
<g id="edge54" class="edge">
<title>comment&#45;&gt;comment</title>
<path fill="none" stroke="gray" stroke-dasharray="5,2" d="M360.71,-70.51C427.26,-84.37 507.2,-78.85 507.2,-53.95 507.2,-30.26 434.88,-24.1 370.54,-35.49"/>
<polygon fill="gray" stroke="gray" points="369.87,-32.06 360.71,-37.38 371.19,-38.93 369.87,-32.06"/>
<text text-anchor="middle" x="375.29" y="-23.13" font-family="Times,serif" font-size="14.00">letter</text>
</g>
<!-- hash&#45;&gt;libmo -->
<g id="edge55" class="edge">
<title>hash&#45;&gt;libmo</title>
<path fill="none" stroke="red" stroke-dasharray="5,2" d="M629.33,-84.01C616.96,-151.8 611.16,-323.49 539.26,-440.77 530.56,-454.95 517.96,-467.44 505.81,-477.83"/>
<polygon fill="red" stroke="red" points="503.4,-475.28 497.94,-484.36 507.87,-480.67 503.4,-475.28"/>
<text text-anchor="middle" x="505.64" y="-464.39" font-family="Times,serif" font-size="14.00">WS</text>
</g>
<!-- hash&#45;&gt;libmo -->
<g id="edge57" class="edge">
<title>hash&#45;&gt;libmo</title>
<path fill="none" stroke="red" stroke-dasharray="5,2" d="M638.43,-86.32C634.82,-155.63 628.36,-324.8 557.26,-440.77 546.26,-458.7 529.03,-473.91 513.12,-485.63"/>
<polygon fill="red" stroke="red" points="511.09,-482.78 504.97,-491.43 515.14,-488.48 511.09,-482.78"/>
<text text-anchor="middle" x="513.85" y="-472.07" font-family="Times,serif" font-size="14.00">&quot;</text>
</g>
<!-- hash&#45;&gt;libmo -->
<g id="edge59" class="edge">
<title>hash&#45;&gt;libmo</title>
<path fill="none" stroke="red" stroke-dasharray="5,2" d="M647.93,-86.06C652.84,-155.2 646.45,-324.66 575.26,-440.77 561.57,-463.09 538.22,-481.19 517.42,-493.59"/>
<polygon fill="red" stroke="red" points="515.66,-490.56 508.69,-498.54 519.11,-496.65 515.66,-490.56"/>
<text text-anchor="middle" x="519.12" y="-480.17" font-family="Times,serif" font-size="14.00">;</text>
</g>
<!-- hash&#45;&gt;libmo -->
<g id="edge60" class="edge">
<title>hash&#45;&gt;libmo</title>
<path fill="none" stroke="red" stroke-dasharray="5,2" d="M656.79,-83.01C671.01,-150.1 665.52,-322.91 593.26,-440.77 577.01,-467.26 547.15,-487.82 520.11,-499.93"/>
<polygon fill="red" stroke="red" points="518.57,-496.78 510.69,-503.86 521.27,-503.24 518.57,-496.78"/>
<text text-anchor="middle" x="522.82" y="-486.86" font-family="Times,serif" font-size="14.00">LF</text>
</g>
<!-- hash&#45;&gt;libmo -->
<g id="edge61" class="edge">
<title>hash&#45;&gt;libmo</title>
<path fill="none" stroke="red" stroke-dasharray="5,2" d="M664.12,-78.24C689.24,-141.53 685.3,-320 611.26,-440.77 592.79,-470.89 556.72,-493.34 521.35,-504.43"/>
<polygon fill="red" stroke="red" points="520.08,-501.15 511.41,-507.25 521.99,-507.88 520.08,-501.15"/>
<text text-anchor="middle" x="525.03" y="-491.78" font-family="Times,serif" font-size="14.00">#</text>
</g>
<!-- hash&#45;&gt;paren -->
<g id="edge56" class="edge">
<title>hash&#45;&gt;paren</title>
<path fill="none" stroke="darkgreen" stroke-dasharray="5,2" d="M635.63,-86C623.52,-119.46 599.51,-174.14 577.26,-220.58 553.35,-270.47 523.98,-327.08 502.67,-363.61"/>
<polygon fill="darkgreen" stroke="darkgreen" points="499.52,-362.06 497.44,-372.45 505.55,-365.63 499.52,-362.06"/>
<text text-anchor="middle" x="499.21" y="-350.84" font-family="Times,serif" font-size="14.00">()</text>
</g>
<!-- hash&#45;&gt;quote -->
<g id="edge62" class="edge">
<title>hash&#45;&gt;quote</title>
<path fill="none" stroke="darkgreen" stroke-dasharray="5,2" d="M618.16,-76.21C589.63,-98.34 542,-132.98 508.02,-156.37"/>
<polygon fill="darkgreen" stroke="darkgreen" points="505.98,-153.52 499.69,-162.06 509.92,-159.3 505.98,-153.52"/>
<text text-anchor="middle" x="508.87" y="-142.87" font-family="Times,serif" font-size="14.00">&#39;</text>
</g>
<!-- hash&#45;&gt;token -->
<g id="edge58" class="edge">
<title>hash&#45;&gt;token</title>
<path fill="none" stroke="gray" stroke-dasharray="5,2" d="M611.73,-65.23C584.16,-76.06 543.04,-93.53 507.26,-107.89 465.74,-124.56 448.48,-116.31 413.26,-143.89 377.58,-171.84 349.32,-215.51 333.12,-248.2"/>
<polygon fill="gray" stroke="gray" points="329.82,-247 328.69,-257.53 336.14,-250.01 329.82,-247"/>
<text text-anchor="middle" x="328.82" y="-235.83" font-family="Times,serif" font-size="14.00">\</text>
</g>
<!-- hash&#45;&gt;token -->
<g id="edge63" class="edge">
<title>hash&#45;&gt;token</title>
<path fill="none" stroke="darkgreen" stroke-dasharray="5,2" d="M614.1,-70.31C590.38,-81.05 555.86,-95.6 525.26,-107.89 483.74,-124.56 466.48,-116.31 431.26,-143.89 393.62,-173.37 364.25,-220.34 344.75,-253.47"/>
<polygon fill="darkgreen" stroke="darkgreen" points="341.55,-252.02 339.52,-262.42 347.59,-255.56 341.55,-252.02"/>
<text text-anchor="middle" x="341.19" y="-240.8" font-family="Times,serif" font-size="14.00">letter</text>
</g>
<!-- quote&#45;&gt;libmo -->
<g id="edge67" class="edge">
<title>quote&#45;&gt;libmo</title>
<path fill="none" stroke="red" stroke-dasharray="5,2" d="M490.61,-212.08C511.5,-247.08 540.09,-308.48 549.26,-365.38 554.59,-398.46 561.35,-409.52 549.26,-440.77 542.26,-458.84 528.33,-475.15 514.33,-487.6"/>
<polygon fill="red" stroke="red" points="511.99,-485 506.58,-494.11 516.49,-490.36 511.99,-485"/>
<text text-anchor="middle" x="514.18" y="-474.09" font-family="Times,serif" font-size="14.00">\</text>
</g>
<!-- quote&#45;&gt;paren -->
<g id="edge65" class="edge">
<title>quote&#45;&gt;paren</title>
<path fill="none" stroke="darkgreen" stroke-dasharray="5,2" d="M469.42,-219.45C470.6,-256.47 472.44,-314.15 473.74,-354.76"/>
<polygon fill="darkgreen" stroke="darkgreen" points="470.25,-355.07 474.07,-364.95 477.25,-354.84 470.25,-355.07"/>
<text text-anchor="middle" x="465.94" y="-345.19" font-family="Times,serif" font-size="14.00">()</text>
</g>
<!-- quote&#45;&gt;paren -->
<g id="edge66" class="edge">
<title>quote&#45;&gt;paren</title>
<path fill="none" stroke="darkgreen" stroke-dasharray="5,2" d="M479.53,-217.79C484.79,-255.2 487.05,-315.06 485.01,-356.35"/>
<polygon fill="darkgreen" stroke="darkgreen" points="481.51,-356.23 484.4,-366.43 488.5,-356.66 481.51,-356.23"/>
<text text-anchor="middle" x="477.8" y="-345.98" font-family="Times,serif" font-size="14.00">&quot;</text>
</g>
<!-- quote&#45;&gt;comment -->
<g id="edge68" class="edge">
<title>quote&#45;&gt;comment</title>
<path fill="none" stroke="darkgreen" stroke-dasharray="5,2" d="M439.46,-158.37C417.16,-140.65 385.72,-115.68 359.32,-94.71"/>
<polygon fill="darkgreen" stroke="darkgreen" points="361.31,-91.82 351.31,-88.34 356.96,-97.3 361.31,-91.82"/>
<text text-anchor="middle" x="368.81" y="-88.83" font-family="Times,serif" font-size="14.00">;</text>
</g>
<!-- quote&#45;&gt;hash -->
<g id="edge70" class="edge">
<title>quote&#45;&gt;hash</title>
<path fill="none" stroke="darkgreen" stroke-dasharray="5,2" d="M495.96,-157.19C525.93,-134.13 573.55,-99.6 606.35,-77.17"/>
<polygon fill="darkgreen" stroke="darkgreen" points="608.45,-79.97 614.77,-71.46 604.52,-74.18 608.45,-79.97"/>
<text text-anchor="middle" x="605.53" y="-83.22" font-family="Times,serif" font-size="14.00">#</text>
</g>
<!-- quote&#45;&gt;quote -->
<g id="edge64" class="edge">
<title>quote&#45;&gt;quote</title>
<path fill="none" stroke="gray" stroke-dasharray="5,2" d="M504.78,-189.09C515.24,-188.82 523.3,-186.53 523.3,-182.24 523.3,-179.48 519.99,-177.56 514.87,-176.46"/>
<polygon fill="gray" stroke="gray" points="515.1,-172.96 504.78,-175.39 514.36,-179.92 515.1,-172.96"/>
<text text-anchor="middle" x="521.81" y="-165.85" font-family="Times,serif" font-size="14.00">WS</text>
</g>
<!-- quote&#45;&gt;quote -->
<g id="edge69" class="edge">
<title>quote&#45;&gt;quote</title>
<path fill="none" stroke="gray" stroke-dasharray="5,2" d="M503.2,-195.28C522.99,-197.83 541.3,-193.48 541.3,-182.24 541.3,-172.93 528.74,-168.34 513.19,-168.49"/>
<polygon fill="gray" stroke="gray" points="512.93,-165 503.2,-169.19 513.43,-171.98 512.93,-165"/>
<text text-anchor="middle" x="518.94" y="-156.76" font-family="Times,serif" font-size="14.00">LF</text>
</g>
<!-- quote&#45;&gt;quote -->
<g id="edge71" class="edge">
<title>quote&#45;&gt;quote</title>
<path fill="none" stroke="darkgreen" stroke-dasharray="5,2" d="M501.4,-199.59C529.63,-207.25 559.3,-201.47 559.3,-182.24 559.3,-165.26 536.18,-158.77 511.33,-162.75"/>
<polygon fill="darkgreen" stroke="darkgreen" points="510.44,-159.36 501.4,-164.89 511.91,-166.2 510.44,-159.36"/>
<text text-anchor="middle" x="515.75" y="-150.31" font-family="Times,serif" font-size="14.00">&#39;</text>
</g>
<!-- quote&#45;&gt;token -->
<g id="edge72" class="edge">
<title>quote&#45;&gt;token</title>
<path fill="none" stroke="darkgreen" stroke-dasharray="5,2" d="M440.87,-207.4C417.75,-225.26 384.55,-249.51 358.61,-267.46"/>
<polygon fill="darkgreen" stroke="darkgreen" points="356.38,-264.74 350.11,-273.29 360.34,-270.51 356.38,-264.74"/>
<text text-anchor="middle" x="359.26" y="-254.08" font-family="Times,serif" font-size="14.00">letter</text>
</g>
<!-- token&#45;&gt;libmo -->
<g id="edge10" class="edge">
<title>token&#45;&gt;libmo</title>
<path fill="none" stroke="blue" stroke-dasharray="5,2" d="M336.67,-325.18C363.09,-365.49 413.04,-435.44 445.31,-477.41"/>
<polygon fill="blue" stroke="blue" points="442.62,-479.66 451.51,-485.41 448.15,-475.37 442.62,-479.66"/>
<text text-anchor="middle" x="435.51" y="-473.48" font-family="Times,serif" font-size="14.00">WS</text>
</g>
<!-- token&#45;&gt;libmo -->
<g id="edge15" class="edge">
<title>token&#45;&gt;libmo</title>
<path fill="none" stroke="blue" stroke-dasharray="5,2" d="M342.99,-320.72C372.71,-358.68 422.84,-428.45 452.22,-472.46"/>
<polygon fill="blue" stroke="blue" points="449.37,-474.5 457.81,-480.91 455.21,-470.64 449.37,-474.5"/>
<text text-anchor="middle" x="442.46" y="-467.8" font-family="Times,serif" font-size="14.00">LF</text>
</g>
<!-- token&#45;&gt;libmo -->
<g id="edge16" class="edge">
<title>token&#45;&gt;libmo</title>
<path fill="none" stroke="red" stroke-dasharray="5,2" d="M347.89,-316.1C381.85,-351.78 433.79,-422.68 460.76,-468.73"/>
<polygon fill="red" stroke="red" points="457.81,-470.64 465.8,-477.59 463.9,-467.17 457.81,-470.64"/>
<text text-anchor="middle" x="451.12" y="-463.49" font-family="Times,serif" font-size="14.00">#</text>
</g>
<!-- token&#45;&gt;paren -->
<g id="edge11" class="edge">
<title>token&#45;&gt;paren</title>
<path fill="none" stroke="darkgreen" stroke-dasharray="5,2" d="M350.36,-311.95C375.76,-328.35 411.53,-352.93 438.35,-372.27"/>
<polygon fill="darkgreen" stroke="darkgreen" points="436.57,-375.31 446.72,-378.35 440.69,-369.64 436.57,-375.31"/>
<text text-anchor="middle" x="429.05" y="-371.22" font-family="Times,serif" font-size="14.00">()</text>
</g>
<!-- token&#45;&gt;string -->
<g id="edge12" class="edge">
<title>token&#45;&gt;string</title>
<path fill="none" stroke="darkgreen" stroke-dasharray="5,2" d="M286.06,-277.99C240.16,-258.64 157.18,-223.67 105.9,-202.05"/>
<polygon fill="darkgreen" stroke="darkgreen" points="106.97,-198.71 96.39,-198.05 104.25,-205.16 106.97,-198.71"/>
<text text-anchor="middle" x="114.38" y="-193.67" font-family="Times,serif" font-size="14.00">&quot;</text>
</g>
<!-- token&#45;&gt;comment -->
<g id="edge14" class="edge">
<title>token&#45;&gt;comment</title>
<path fill="none" stroke="darkgreen" stroke-dasharray="5,2" d="M317.76,-256.49C316.22,-220.07 313.8,-162.62 311.93,-118.36"/>
<polygon fill="darkgreen" stroke="darkgreen" points="315.42,-118.11 311.51,-108.27 308.43,-118.41 315.42,-118.11"/>
<text text-anchor="middle" x="319.79" y="-120.55" font-family="Times,serif" font-size="14.00">;</text>
</g>
<!-- token&#45;&gt;quote -->
<g id="edge17" class="edge">
<title>token&#45;&gt;quote</title>
<path fill="none" stroke="darkgreen" stroke-dasharray="5,2" d="M346.26,-268.12C369.2,-250.37 402.29,-226.2 428.28,-208.2"/>
<polygon fill="darkgreen" stroke="darkgreen" points="430.53,-210.89 436.79,-202.34 426.57,-205.12 430.53,-210.89"/>
<text text-anchor="middle" x="427.66" y="-214.15" font-family="Times,serif" font-size="14.00">&#39;</text>
</g>
<!-- token&#45;&gt;token -->
<g id="edge13" class="edge">
<title>token&#45;&gt;token</title>
<path fill="none" stroke="gray" stroke-dasharray="5,2" d="M354.31,-303.28C365.15,-303.07 373.65,-299.64 373.65,-292.98 373.65,-288.61 369.99,-285.63 364.41,-284.04"/>
<polygon fill="gray" stroke="gray" points="364.69,-280.54 354.31,-282.68 363.75,-287.48 364.69,-280.54"/>
<text text-anchor="middle" x="371.49" y="-273.61" font-family="Times,serif" font-size="14.00">\</text>
</g>
<!-- token&#45;&gt;token -->
<g id="edge18" class="edge">
<title>token&#45;&gt;token</title>
<path fill="none" stroke="gray" stroke-dasharray="5,2" d="M350.51,-311.79C371.36,-317.08 391.65,-310.81 391.65,-292.98 391.65,-278.07 377.47,-271.25 360.64,-272.5"/>
<polygon fill="gray" stroke="gray" points="359.81,-269.09 350.51,-274.17 360.95,-276 359.81,-269.09"/>
<text text-anchor="middle" x="365.37" y="-260.31" font-family="Times,serif" font-size="14.00">letter</text>
</g>
<!-- escape&#45;&gt;string -->
<g id="edge28" class="edge">
<title>escape&#45;&gt;string</title>
<path fill="none" stroke="gray" stroke-dasharray="5,2" d="M25.09,-75.81C11.36,-97.56 10.39,-131.69 22.17,-155.2"/>
<polygon fill="gray" stroke="gray" points="19.32,-157.25 27.54,-163.94 25.29,-153.59 19.32,-157.25"/>
<text text-anchor="middle" x="12.52" y="-150.32" font-family="Times,serif" font-size="14.00">WS</text>
</g>
<!-- escape&#45;&gt;string -->
<g id="edge29" class="edge">
<title>escape&#45;&gt;string</title>
<path fill="none" stroke="gray" stroke-dasharray="5,2" d="M32.05,-84.9C26.5,-103.26 26.04,-126.83 30.64,-146.07"/>
<polygon fill="gray" stroke="gray" points="27.3,-147.1 33.51,-155.68 34.01,-145.1 27.3,-147.1"/>
<text text-anchor="middle" x="21.56" y="-138.53" font-family="Times,serif" font-size="14.00">()</text>
</g>
<!-- escape&#45;&gt;string -->
<g id="edge30" class="edge">
<title>escape&#45;&gt;string</title>
<path fill="none" stroke="gray" stroke-dasharray="5,2" d="M42.62,-92.09C40.72,-106.59 40.5,-123.3 41.96,-138.31"/>
<polygon fill="gray" stroke="gray" points="38.51,-138.91 43.24,-148.39 45.45,-138.02 38.51,-138.91"/>
<text text-anchor="middle" x="33.64" y="-129.46" font-family="Times,serif" font-size="14.00">&quot;</text>
</g>
<!-- escape&#45;&gt;string -->
<g id="edge31" class="edge">
<title>escape&#45;&gt;string</title>
<path fill="none" stroke="gray" stroke-dasharray="5,2" d="M54.89,-96.07C54.45,-108.22 54.39,-121.62 54.7,-134.13"/>
<polygon fill="gray" stroke="gray" points="51.21,-134.49 55.06,-144.37 58.21,-134.25 51.21,-134.49"/>
<text text-anchor="middle" x="46.89" y="-124.63" font-family="Times,serif" font-size="14.00">\</text>
</g>
<!-- escape&#45;&gt;string -->
<g id="edge32" class="edge">
<title>escape&#45;&gt;string</title>
<path fill="none" stroke="gray" stroke-dasharray="5,2" d="M67.63,-96.07C68.06,-108.22 68.12,-121.62 67.81,-134.13"/>
<polygon fill="gray" stroke="gray" points="64.3,-134.25 67.46,-144.37 71.3,-134.49 64.3,-134.25"/>
<text text-anchor="middle" x="60.41" y="-124.1" font-family="Times,serif" font-size="14.00">;</text>
</g>
<!-- escape&#45;&gt;string -->
<g id="edge33" class="edge">
<title>escape&#45;&gt;string</title>
<path fill="none" stroke="gray" stroke-dasharray="5,2" d="M79.9,-92.09C81.8,-106.59 82.01,-123.3 80.55,-138.31"/>
<polygon fill="gray" stroke="gray" points="77.06,-138.02 79.27,-148.39 84.01,-138.91 77.06,-138.02"/>
<text text-anchor="middle" x="73.78" y="-127.54" font-family="Times,serif" font-size="14.00">LF</text>
</g>
<!-- escape&#45;&gt;string -->
<g id="edge34" class="edge">
<title>escape&#45;&gt;string</title>
<path fill="none" stroke="gray" stroke-dasharray="5,2" d="M90.47,-84.9C96.01,-103.26 96.48,-126.83 91.87,-146.07"/>
<polygon fill="gray" stroke="gray" points="88.51,-145.1 89,-155.68 95.22,-147.1 88.51,-145.1"/>
<text text-anchor="middle" x="86.38" y="-134.17" font-family="Times,serif" font-size="14.00">#</text>
</g>
<!-- escape&#45;&gt;string -->
<g id="edge35" class="edge">
<title>escape&#45;&gt;string</title>
<path fill="none" stroke="gray" stroke-dasharray="5,2" d="M97.43,-75.81C111.15,-97.56 112.13,-131.69 100.34,-155.2"/>
<polygon fill="gray" stroke="gray" points="97.22,-153.59 94.97,-163.94 103.19,-157.25 97.22,-153.59"/>
<text text-anchor="middle" x="97.03" y="-142.36" font-family="Times,serif" font-size="14.00">&#39;</text>
</g>
<!-- escape&#45;&gt;string -->
<g id="edge36" class="edge">
<title>escape&#45;&gt;string</title>
<path fill="none" stroke="gray" stroke-dasharray="5,2" d="M101.19,-68.98C127.48,-91.99 128.87,-137.72 105.37,-163.14"/>
<polygon fill="gray" stroke="gray" points="102.79,-160.75 97.68,-170.03 107.46,-165.96 102.79,-160.75"/>
<text text-anchor="middle" x="104.75" y="-149.78" font-family="Times,serif" font-size="14.00">letter</text>
</g>
</g>
</svg>
