<?xml version="1.0" encoding="UTF-8" standalone="no"?>
<!DOCTYPE svg PUBLIC "-//W3C//DTD SVG 1.1//EN"
 "http://www.w3.org/Graphics/SVG/1.1/DTD/svg11.dtd">
<!-- Generated by graphviz version 2.42.3 (20191010.1750)
 -->
<!-- Title: %3 Pages: 1 -->
<svg width="679pt" height="340pt"
 viewBox="0.00 0.00 679.36 339.74" xmlns="http://www.w3.org/2000/svg" xmlns:xlink="http://www.w3.org/1999/xlink">
<g id="graph0" class="graph" transform="scale(1 1) rotate(0) translate(4 335.74)">
<title>%3</title>
<polygon fill="white" stroke="transparent" points="-4,4 -4,-335.74 675.36,-335.74 675.36,4 -4,4"/>
<!-- limbo -->
<g id="node1" class="node">
<title>limbo</title>
<ellipse fill="none" stroke="black" cx="464.27" cy="-313.74" rx="36.29" ry="18"/>
<text text-anchor="middle" x="464.27" y="-310.04" font-family="Times,serif" font-size="14.00">limbo</text>
</g>
<!-- limbo&#45;&gt;limbo -->
<g id="edge1" class="edge">
<title>limbo&#45;&gt;limbo</title>
<path fill="none" stroke="darkorange" stroke-dasharray="5,2" d="M499.59,-318.23C510.3,-318.12 518.67,-316.62 518.67,-313.74 518.67,-311.89 515.23,-310.61 509.95,-309.9"/>
<polygon fill="darkorange" stroke="darkorange" points="509.79,-306.39 499.59,-309.24 509.35,-313.37 509.79,-306.39"/>
<text text-anchor="middle" x="516.35" y="-298.99" font-family="Times,serif" font-size="14.00">ws</text>
</g>
<!-- limbo&#45;&gt;limbo -->
<g id="edge4" class="edge">
<title>limbo&#45;&gt;limbo</title>
<path fill="none" stroke="maroon" stroke-dasharray="5,2" d="M496.66,-322.06C517.1,-324.15 536.67,-321.38 536.67,-313.74 536.67,-307.41 523.25,-304.42 507.03,-304.76"/>
<polygon fill="maroon" stroke="maroon" points="506.42,-301.3 496.66,-305.41 506.85,-308.28 506.42,-301.3"/>
<text text-anchor="middle" x="512.47" y="-293.1" font-family="Times,serif" font-size="14.00">\</text>
</g>
<!-- limbo&#45;&gt;limbo -->
<g id="edge6" class="edge">
<title>limbo&#45;&gt;limbo</title>
<path fill="none" stroke="darkorange" stroke-dasharray="5,2" d="M493.9,-324.47C522.86,-330.39 554.67,-326.82 554.67,-313.74 554.67,-302.14 529.66,-298.02 503.8,-301.36"/>
<polygon fill="darkorange" stroke="darkorange" points="503.19,-297.91 493.9,-303.01 504.34,-304.82 503.19,-297.91"/>
<text text-anchor="middle" x="508.74" y="-289.13" font-family="Times,serif" font-size="14.00">nl</text>
</g>
<!-- paren -->
<g id="node2" class="node">
<title>paren</title>
<ellipse fill="none" stroke="black" cx="464.27" cy="-241.74" rx="37.89" ry="18"/>
<text text-anchor="middle" x="464.27" y="-238.04" font-family="Times,serif" font-size="14.00">paren</text>
</g>
<!-- limbo&#45;&gt;paren -->
<g id="edge2" class="edge">
<title>limbo&#45;&gt;paren</title>
<path fill="none" stroke="darkorange" stroke-dasharray="5,2" d="M447.24,-297.55C444.05,-288.83 443.23,-277.68 444.78,-267.71"/>
<polygon fill="darkorange" stroke="darkorange" points="448.2,-268.45 447.25,-257.9 441.41,-266.74 448.2,-268.45"/>
<text text-anchor="middle" x="450.65" y="-271.87" font-family="Times,serif" font-size="14.00">()</text>
</g>
<!-- string -->
<g id="node3" class="node">
<title>string</title>
<ellipse fill="none" stroke="black" cx="61.27" cy="-97.74" rx="38.19" ry="18"/>
<text text-anchor="middle" x="61.27" y="-94.04" font-family="Times,serif" font-size="14.00">string</text>
</g>
<!-- limbo&#45;&gt;string -->
<g id="edge3" class="edge">
<title>limbo&#45;&gt;string</title>
<path fill="none" stroke="darkorange" stroke-dasharray="5,2" d="M427.9,-312.12C374.86,-309.91 275.36,-300.28 203.27,-259.74 143.48,-226.11 93.48,-160.79 71.89,-124.54"/>
<polygon fill="darkorange" stroke="darkorange" points="74.77,-122.53 66.79,-115.56 68.68,-125.99 74.77,-122.53"/>
<text text-anchor="middle" x="81.46" y="-122.3" font-family="Times,serif" font-size="14.00">&quot;</text>
</g>
<!-- comment -->
<g id="node4" class="node">
<title>comment</title>
<ellipse fill="none" stroke="black" cx="309.27" cy="-25.74" rx="53.89" ry="18"/>
<text text-anchor="middle" x="309.27" y="-22.04" font-family="Times,serif" font-size="14.00">comment</text>
</g>
<!-- limbo&#45;&gt;comment -->
<g id="edge5" class="edge">
<title>limbo&#45;&gt;comment</title>
<path fill="none" stroke="darkorange" stroke-dasharray="5,2" d="M431.71,-305.61C381.96,-291.82 289.75,-256.6 254.27,-187.74 230.93,-142.43 261.14,-83.66 285.39,-51.12"/>
<polygon fill="darkorange" stroke="darkorange" points="288.29,-53.09 291.7,-43.06 282.78,-48.77 288.29,-53.09"/>
<text text-anchor="middle" x="287.63" y="-56.89" font-family="Times,serif" font-size="14.00">;</text>
</g>
<!-- hash -->
<g id="node5" class="node">
<title>hash</title>
<ellipse fill="none" stroke="black" cx="638.27" cy="-25.74" rx="32.49" ry="18"/>
<text text-anchor="middle" x="638.27" y="-22.04" font-family="Times,serif" font-size="14.00">hash</text>
</g>
<!-- limbo&#45;&gt;hash -->
<g id="edge7" class="edge">
<title>limbo&#45;&gt;hash</title>
<path fill="none" stroke="darkorange" stroke-dasharray="5,2" d="M477.11,-296.65C493.64,-288.44 514.26,-276.54 528.27,-259.74 580.9,-196.64 591.05,-93.9 613,-48.96"/>
<polygon fill="darkorange" stroke="darkorange" points="616.17,-50.47 618.04,-40.04 610.07,-47.02 616.17,-50.47"/>
<text text-anchor="middle" x="616.63" y="-54.29" font-family="Times,serif" font-size="14.00">#</text>
</g>
<!-- quote -->
<g id="node6" class="node">
<title>quote</title>
<ellipse fill="none" stroke="black" cx="472.27" cy="-97.74" rx="37.09" ry="18"/>
<text text-anchor="middle" x="472.27" y="-94.04" font-family="Times,serif" font-size="14.00">quote</text>
</g>
<!-- limbo&#45;&gt;quote -->
<g id="edge8" class="edge">
<title>limbo&#45;&gt;quote</title>
<path fill="none" stroke="darkorange" stroke-dasharray="5,2" d="M470.62,-295.98C481.24,-287.09 495.09,-274.86 502.27,-259.74 523.94,-214.1 491.52,-157.9 475.37,-125.41"/>
<polygon fill="darkorange" stroke="darkorange" points="478.41,-123.65 470.96,-116.12 472.09,-126.66 478.41,-123.65"/>
<text text-anchor="middle" x="484.83" y="-123.89" font-family="Times,serif" font-size="14.00">&#39;</text>
</g>
<!-- token -->
<g id="node7" class="node">
<title>token</title>
<ellipse fill="none" stroke="black" cx="308.27" cy="-169.74" rx="36.29" ry="18"/>
<text text-anchor="middle" x="308.27" y="-166.04" font-family="Times,serif" font-size="14.00">token</text>
</g>
<!-- limbo&#45;&gt;token -->
<g id="edge9" class="edge">
<title>limbo&#45;&gt;token</title>
<path fill="none" stroke="darkorange" stroke-dasharray="5,2" d="M439.03,-300.63C404.04,-277.48 346.73,-226.51 319.89,-195.75"/>
<polygon fill="darkorange" stroke="darkorange" points="322.55,-193.47 313.46,-188.03 317.17,-197.95 322.55,-193.47"/>
<text text-anchor="middle" x="329.74" y="-192" font-family="Times,serif" font-size="14.00">abc</text>
</g>
<!-- paren&#45;&gt;limbo -->
<g id="edge37" class="edge">
<title>paren&#45;&gt;limbo</title>
<path fill="none" stroke="royalblue" stroke-dasharray="5,2" d="M458.41,-259.53C457.57,-267.33 457.33,-276.8 457.68,-285.59"/>
<polygon fill="royalblue" stroke="royalblue" points="454.2,-286.06 458.39,-295.79 461.18,-285.57 454.2,-286.06"/>
<text text-anchor="middle" x="449.66" y="-276.35" font-family="Times,serif" font-size="14.00">ws</text>
</g>
<!-- paren&#45;&gt;limbo -->
<g id="edge40" class="edge">
<title>paren&#45;&gt;limbo</title>
<path fill="none" stroke="maroon" stroke-dasharray="5,2" d="M470.13,-259.53C470.97,-267.33 471.22,-276.8 470.87,-285.59"/>
<polygon fill="maroon" stroke="maroon" points="467.36,-285.57 470.15,-295.79 474.34,-286.06 467.36,-285.57"/>
<text text-anchor="middle" x="463.71" y="-275.28" font-family="Times,serif" font-size="14.00">\</text>
</g>
<!-- paren&#45;&gt;limbo -->
<g id="edge42" class="edge">
<title>paren&#45;&gt;limbo</title>
<path fill="none" stroke="royalblue" stroke-dasharray="5,2" d="M481.3,-257.9C484.49,-266.61 485.31,-277.76 483.77,-287.73"/>
<polygon fill="royalblue" stroke="royalblue" points="480.35,-287 481.31,-297.55 487.14,-288.7 480.35,-287"/>
<text text-anchor="middle" x="477.9" y="-276.17" font-family="Times,serif" font-size="14.00">nl</text>
</g>
<!-- paren&#45;&gt;paren -->
<g id="edge38" class="edge">
<title>paren&#45;&gt;paren</title>
<path fill="none" stroke="seagreen" stroke-dasharray="5,2" d="M490.92,-254.54C506,-257.05 519.97,-252.78 519.97,-241.74 519.97,-233.29 511.78,-228.8 501.18,-228.29"/>
<polygon fill="seagreen" stroke="seagreen" points="500.68,-224.81 490.92,-228.93 501.12,-231.8 500.68,-224.81"/>
<text text-anchor="middle" x="506.73" y="-216.62" font-family="Times,serif" font-size="14.00">()</text>
</g>
<!-- paren&#45;&gt;string -->
<g id="edge39" class="edge">
<title>paren&#45;&gt;string</title>
<path fill="none" stroke="seagreen" stroke-dasharray="5,2" d="M430.36,-233.51C390,-224.52 320.84,-207.87 263.27,-187.74 202.95,-166.64 135.51,-135.27 95.81,-115.96"/>
<polygon fill="seagreen" stroke="seagreen" points="97.1,-112.69 86.58,-111.44 94.02,-118.98 97.1,-112.69"/>
<text text-anchor="middle" x="104.58" y="-108.07" font-family="Times,serif" font-size="14.00">&quot;</text>
</g>
<!-- paren&#45;&gt;comment -->
<g id="edge41" class="edge">
<title>paren&#45;&gt;comment</title>
<path fill="none" stroke="seagreen" stroke-dasharray="5,2" d="M452.37,-224.3C425.39,-187.05 359.44,-96 327.37,-51.73"/>
<polygon fill="seagreen" stroke="seagreen" points="330.13,-49.57 321.43,-43.53 324.46,-53.68 330.13,-49.57"/>
<text text-anchor="middle" x="337.16" y="-48.58" font-family="Times,serif" font-size="14.00">;</text>
</g>
<!-- paren&#45;&gt;hash -->
<g id="edge43" class="edge">
<title>paren&#45;&gt;hash</title>
<path fill="none" stroke="seagreen" stroke-dasharray="5,2" d="M473.83,-224.3C500.96,-186.34 577.07,-92.52 615.62,-49.25"/>
<polygon fill="seagreen" stroke="seagreen" points="618.26,-51.56 622.37,-41.79 613.07,-46.86 618.26,-51.56"/>
<text text-anchor="middle" x="617.08" y="-55.29" font-family="Times,serif" font-size="14.00">#</text>
</g>
<!-- paren&#45;&gt;quote -->
<g id="edge44" class="edge">
<title>paren&#45;&gt;quote</title>
<path fill="none" stroke="seagreen" stroke-dasharray="5,2" d="M456.11,-223.89C452.25,-199.42 454.27,-153.82 460.05,-124.94"/>
<polygon fill="seagreen" stroke="seagreen" points="463.47,-125.66 462.34,-115.12 456.66,-124.06 463.47,-125.66"/>
<text text-anchor="middle" x="466.03" y="-129.04" font-family="Times,serif" font-size="14.00">&#39;</text>
</g>
<!-- paren&#45;&gt;token -->
<g id="edge45" class="edge">
<title>paren&#45;&gt;token</title>
<path fill="none" stroke="seagreen" stroke-dasharray="5,2" d="M435.2,-229.95C408.42,-218.8 368.95,-201.22 341.07,-188.11"/>
<polygon fill="seagreen" stroke="seagreen" points="342.27,-184.8 331.73,-183.68 339.26,-191.13 342.27,-184.8"/>
<text text-anchor="middle" x="349.73" y="-180.1" font-family="Times,serif" font-size="14.00">abc</text>
</g>
<!-- string&#45;&gt;limbo -->
<g id="edge21" class="edge">
<title>string&#45;&gt;limbo</title>
<path fill="none" stroke="royalblue" stroke-dasharray="5,2" d="M76.05,-114.55C101.52,-147.34 155.47,-222.73 221.27,-259.74 283.61,-294.8 366.45,-306.74 417.62,-310.76"/>
<polygon fill="royalblue" stroke="royalblue" points="417.51,-314.26 427.73,-311.48 418.01,-307.28 417.51,-314.26"/>
<text text-anchor="middle" x="410.92" y="-314.21" font-family="Times,serif" font-size="14.00">&quot;</text>
</g>
<!-- string&#45;&gt;string -->
<g id="edge19" class="edge">
<title>string&#45;&gt;string</title>
<path fill="none" stroke="dimgray" stroke-dasharray="5,2" d="M99.46,-99.65C109.77,-99.55 117.62,-98.91 117.62,-97.74 117.62,-97 114.55,-96.48 109.74,-96.16"/>
<polygon fill="dimgray" stroke="dimgray" points="109.57,-92.66 99.46,-95.82 109.34,-99.65 109.57,-92.66"/>
<text text-anchor="middle" x="116.02" y="-85.06" font-family="Times,serif" font-size="14.00">ws</text>
</g>
<!-- string&#45;&gt;string -->
<g id="edge20" class="edge">
<title>string&#45;&gt;string</title>
<path fill="none" stroke="dimgray" stroke-dasharray="5,2" d="M99.14,-101.47C118.38,-102.01 135.62,-100.77 135.62,-97.74 135.62,-95.25 124.02,-93.96 109.23,-93.88"/>
<polygon fill="dimgray" stroke="dimgray" points="109.1,-90.39 99.14,-94 109.18,-97.38 109.1,-90.39"/>
<text text-anchor="middle" x="115.37" y="-82.5" font-family="Times,serif" font-size="14.00">()</text>
</g>
<!-- string&#45;&gt;string -->
<g id="edge23" class="edge">
<title>string&#45;&gt;string</title>
<path fill="none" stroke="dimgray" stroke-dasharray="5,2" d="M98.25,-102.84C125.83,-104.62 153.62,-102.92 153.62,-97.74 153.62,-93.2 132.34,-91.33 108.55,-92.13"/>
<polygon fill="dimgray" stroke="dimgray" points="108.07,-88.65 98.25,-92.64 108.41,-95.64 108.07,-88.65"/>
<text text-anchor="middle" x="114.18" y="-80.54" font-family="Times,serif" font-size="14.00">;</text>
</g>
<!-- string&#45;&gt;string -->
<g id="edge24" class="edge">
<title>string&#45;&gt;string</title>
<path fill="none" stroke="dimgray" stroke-dasharray="5,2" d="M97.44,-103.87C132.79,-107.25 171.62,-105.21 171.62,-97.74 171.62,-90.96 139.73,-88.65 107.44,-90.8"/>
<polygon fill="dimgray" stroke="dimgray" points="107.13,-87.31 97.44,-91.61 107.69,-94.29 107.13,-87.31"/>
<text text-anchor="middle" x="113.09" y="-79.01" font-family="Times,serif" font-size="14.00">nl</text>
</g>
<!-- string&#45;&gt;string -->
<g id="edge25" class="edge">
<title>string&#45;&gt;string</title>
<path fill="none" stroke="dimgray" stroke-dasharray="5,2" d="M96.75,-104.66C139.46,-109.89 189.62,-107.58 189.62,-97.74 189.62,-88.66 146.99,-85.99 106.87,-89.73"/>
<polygon fill="dimgray" stroke="dimgray" points="106.32,-86.27 96.75,-90.82 107.07,-93.23 106.32,-86.27"/>
<text text-anchor="middle" x="112.16" y="-77.81" font-family="Times,serif" font-size="14.00">#</text>
</g>
<!-- string&#45;&gt;string -->
<g id="edge26" class="edge">
<title>string&#45;&gt;string</title>
<path fill="none" stroke="dimgray" stroke-dasharray="5,2" d="M96.18,-105.28C145.97,-112.52 207.62,-110 207.62,-97.74 207.62,-86.29 153.88,-83.33 106.23,-88.88"/>
<polygon fill="dimgray" stroke="dimgray" points="105.64,-85.43 96.18,-90.19 106.55,-92.37 105.64,-85.43"/>
<text text-anchor="middle" x="111.37" y="-76.84" font-family="Times,serif" font-size="14.00">&#39;</text>
</g>
<!-- string&#45;&gt;string -->
<g id="edge27" class="edge">
<title>string&#45;&gt;string</title>
<path fill="none" stroke="dimgray" stroke-dasharray="5,2" d="M95.97,-105.83C152.59,-115.13 225.62,-112.43 225.62,-97.74 225.62,-83.9 160.9,-80.7 106.07,-88.13"/>
<polygon fill="dimgray" stroke="dimgray" points="105.34,-84.7 95.97,-89.64 106.38,-91.63 105.34,-84.7"/>
<text text-anchor="middle" x="110.98" y="-76.01" font-family="Times,serif" font-size="14.00">abc</text>
</g>
<!-- escape -->
<g id="node8" class="node">
<title>escape</title>
<ellipse fill="none" stroke="black" cx="61.27" cy="-25.74" rx="42.49" ry="18"/>
<text text-anchor="middle" x="61.27" y="-22.04" font-family="Times,serif" font-size="14.00">escape</text>
</g>
<!-- string&#45;&gt;escape -->
<g id="edge22" class="edge">
<title>string&#45;&gt;escape</title>
<path fill="none" stroke="dimgray" stroke-dasharray="5,2" d="M25.76,-90.89C-3.36,-79.48 -7.28,-54.02 14.01,-38.83"/>
<polygon fill="dimgray" stroke="dimgray" points="16.01,-41.72 22.99,-33.75 12.56,-35.63 16.01,-41.72"/>
<text text-anchor="middle" x="12.54" y="-44.7" font-family="Times,serif" font-size="14.00">\</text>
</g>
<!-- comment&#45;&gt;limbo -->
<g id="edge51" class="edge">
<title>comment&#45;&gt;limbo</title>
<path fill="none" stroke="royalblue" stroke-dasharray="5,2" d="M301.68,-44.01C284.17,-74.42 247.11,-138.9 272.27,-187.74 303.46,-248.27 378.49,-282.81 425.1,-299.65"/>
<polygon fill="royalblue" stroke="royalblue" points="423.99,-302.97 434.59,-302.98 426.31,-296.36 423.99,-302.97"/>
<text text-anchor="middle" x="416.68" y="-301.06" font-family="Times,serif" font-size="14.00">nl</text>
</g>
<!-- comment&#45;&gt;comment -->
<g id="edge46" class="edge">
<title>comment&#45;&gt;comment</title>
<path fill="none" stroke="dimgray" stroke-dasharray="5,2" d="M363.24,-27.35C373.75,-27.16 381.22,-26.62 381.22,-25.74 381.22,-25.18 378.3,-24.76 373.55,-24.48"/>
<polygon fill="dimgray" stroke="dimgray" points="373.35,-20.97 363.24,-24.12 373.11,-27.97 373.35,-20.97"/>
<text text-anchor="middle" x="379.81" y="-13.39" font-family="Times,serif" font-size="14.00">ws</text>
</g>
<!-- comment&#45;&gt;comment -->
<g id="edge47" class="edge">
<title>comment&#45;&gt;comment</title>
<path fill="none" stroke="dimgray" stroke-dasharray="5,2" d="M362.38,-29.1C382.54,-29.23 399.22,-28.11 399.22,-25.74 399.22,-23.77 387.78,-22.67 372.4,-22.42"/>
<polygon fill="dimgray" stroke="dimgray" points="372.4,-18.92 362.38,-22.37 372.37,-25.92 372.4,-18.92"/>
<text text-anchor="middle" x="378.73" y="-11.14" font-family="Times,serif" font-size="14.00">()</text>
</g>
<!-- comment&#45;&gt;comment -->
<g id="edge48" class="edge">
<title>comment&#45;&gt;comment</title>
<path fill="none" stroke="dimgray" stroke-dasharray="5,2" d="M361.48,-30.56C390.5,-31.46 417.22,-29.85 417.22,-25.74 417.22,-22.11 396.39,-20.43 371.54,-20.7"/>
<polygon fill="dimgray" stroke="dimgray" points="371.4,-17.21 361.48,-20.92 371.55,-24.2 371.4,-17.21"/>
<text text-anchor="middle" x="377.62" y="-9.27" font-family="Times,serif" font-size="14.00">&quot;</text>
</g>
<!-- comment&#45;&gt;comment -->
<g id="edge49" class="edge">
<title>comment&#45;&gt;comment</title>
<path fill="none" stroke="dimgray" stroke-dasharray="5,2" d="M360.37,-31.73C397.75,-33.75 435.22,-31.75 435.22,-25.74 435.22,-20.27 404.18,-18.12 370.42,-19.3"/>
<polygon fill="dimgray" stroke="dimgray" points="370.2,-15.81 360.37,-19.75 370.51,-22.8 370.2,-15.81"/>
<text text-anchor="middle" x="376.32" y="-7.72" font-family="Times,serif" font-size="14.00">\</text>
</g>
<!-- comment&#45;&gt;comment -->
<g id="edge50" class="edge">
<title>comment&#45;&gt;comment</title>
<path fill="none" stroke="dimgray" stroke-dasharray="5,2" d="M359.43,-32.67C404.71,-36.05 453.22,-33.74 453.22,-25.74 453.22,-18.33 411.65,-15.8 369.55,-18.14"/>
<polygon fill="dimgray" stroke="dimgray" points="369.18,-14.66 359.43,-18.8 369.64,-21.65 369.18,-14.66"/>
<text text-anchor="middle" x="375.22" y="-6.45" font-family="Times,serif" font-size="14.00">;</text>
</g>
<!-- comment&#45;&gt;comment -->
<g id="edge52" class="edge">
<title>comment&#45;&gt;comment</title>
<path fill="none" stroke="dimgray" stroke-dasharray="5,2" d="M358.18,-33.41C411.12,-38.37 471.22,-35.81 471.22,-25.74 471.22,-16.29 418.4,-13.46 368.17,-17.22"/>
<polygon fill="dimgray" stroke="dimgray" points="367.85,-13.74 358.18,-18.07 368.44,-20.71 367.85,-13.74"/>
<text text-anchor="middle" x="373.8" y="-5.42" font-family="Times,serif" font-size="14.00">#</text>
</g>
<!-- comment&#45;&gt;comment -->
<g id="edge53" class="edge">
<title>comment&#45;&gt;comment</title>
<path fill="none" stroke="dimgray" stroke-dasharray="5,2" d="M357.19,-34.02C417.46,-40.68 489.22,-37.92 489.22,-25.74 489.22,-14.22 425.09,-11.13 367.16,-16.45"/>
<polygon fill="dimgray" stroke="dimgray" points="366.78,-12.97 357.19,-17.46 367.49,-19.93 366.78,-12.97"/>
<text text-anchor="middle" x="372.65" y="-4.55" font-family="Times,serif" font-size="14.00">&#39;</text>
</g>
<!-- comment&#45;&gt;comment -->
<g id="edge54" class="edge">
<title>comment&#45;&gt;comment</title>
<path fill="none" stroke="dimgray" stroke-dasharray="5,2" d="M356.48,-34.54C423.83,-42.98 507.22,-40.05 507.22,-25.74 507.22,-12.13 431.77,-8.81 366.45,-15.78"/>
<polygon fill="dimgray" stroke="dimgray" points="366.02,-12.31 356.48,-16.93 366.82,-19.26 366.02,-12.31"/>
<text text-anchor="middle" x="371.81" y="-3.8" font-family="Times,serif" font-size="14.00">abc</text>
</g>
<!-- hash&#45;&gt;limbo -->
<g id="edge55" class="edge">
<title>hash&#45;&gt;limbo</title>
<path fill="none" stroke="maroon" stroke-dasharray="5,2" d="M625.21,-42.33C610.01,-82.91 601.68,-193.3 546.27,-259.74 532.97,-275.69 513.72,-287.22 496.63,-295.37"/>
<polygon fill="maroon" stroke="maroon" points="495.07,-292.23 487.41,-299.55 497.96,-298.61 495.07,-292.23"/>
<text text-anchor="middle" x="499.12" y="-282.18" font-family="Times,serif" font-size="14.00">ws</text>
</g>
<!-- hash&#45;&gt;limbo -->
<g id="edge57" class="edge">
<title>hash&#45;&gt;limbo</title>
<path fill="none" stroke="maroon" stroke-dasharray="5,2" d="M633.62,-43.84C627.8,-85.59 619.01,-194.11 564.27,-259.74 548.45,-278.71 524.21,-291.43 503.48,-299.64"/>
<polygon fill="maroon" stroke="maroon" points="502.08,-296.42 493.94,-303.21 504.53,-302.98 502.08,-296.42"/>
<text text-anchor="middle" x="506.55" y="-286.67" font-family="Times,serif" font-size="14.00">&quot;</text>
</g>
<!-- hash&#45;&gt;limbo -->
<g id="edge59" class="edge">
<title>hash&#45;&gt;limbo</title>
<path fill="none" stroke="maroon" stroke-dasharray="5,2" d="M642.58,-43.84C645.8,-85.59 637.01,-194.11 582.27,-259.74 563.53,-282.21 533,-295.9 507.56,-303.73"/>
<polygon fill="maroon" stroke="maroon" points="506.39,-300.42 497.74,-306.54 508.32,-307.15 506.39,-300.42"/>
<text text-anchor="middle" x="511.33" y="-291.03" font-family="Times,serif" font-size="14.00">;</text>
</g>
<!-- hash&#45;&gt;limbo -->
<g id="edge60" class="edge">
<title>hash&#45;&gt;limbo</title>
<path fill="none" stroke="maroon" stroke-dasharray="5,2" d="M651.08,-42.33C664.01,-82.91 655.68,-193.3 600.27,-259.74 578.57,-285.77 541.02,-300.02 509.44,-307.02"/>
<polygon fill="maroon" stroke="maroon" points="508.54,-303.63 499.43,-309.04 509.92,-310.49 508.54,-303.63"/>
<text text-anchor="middle" x="513.91" y="-294.65" font-family="Times,serif" font-size="14.00">nl</text>
</g>
<!-- hash&#45;&gt;limbo -->
<g id="edge61" class="edge">
<title>hash&#45;&gt;limbo</title>
<path fill="none" stroke="maroon" stroke-dasharray="5,2" d="M658.36,-40.04C682.31,-78.61 674.76,-192.01 618.27,-259.74 593.98,-288.86 549.87,-303.25 510.18,-309.21"/>
<polygon fill="maroon" stroke="maroon" points="509.65,-305.75 500.2,-310.55 510.58,-312.69 509.65,-305.75"/>
<text text-anchor="middle" x="515.36" y="-297.14" font-family="Times,serif" font-size="14.00">#</text>
</g>
<!-- hash&#45;&gt;paren -->
<g id="edge56" class="edge">
<title>hash&#45;&gt;paren</title>
<path fill="none" stroke="seagreen" stroke-dasharray="5,2" d="M628.73,-43.15C601.7,-80.99 525.93,-174.4 487.26,-217.84"/>
<polygon fill="seagreen" stroke="seagreen" points="484.59,-215.58 480.49,-225.35 489.79,-220.27 484.59,-215.58"/>
<text text-anchor="middle" x="485.77" y="-204.44" font-family="Times,serif" font-size="14.00">()</text>
</g>
<!-- hash&#45;&gt;quote -->
<g id="edge62" class="edge">
<title>hash&#45;&gt;quote</title>
<path fill="none" stroke="seagreen" stroke-dasharray="5,2" d="M615.43,-38.57C588.42,-50.77 543.39,-69.81 510.96,-82.75"/>
<polygon fill="seagreen" stroke="seagreen" points="509.35,-79.63 501.34,-86.56 511.93,-86.14 509.35,-79.63"/>
<text text-anchor="middle" x="513.71" y="-69.78" font-family="Times,serif" font-size="14.00">&#39;</text>
</g>
<!-- hash&#45;&gt;token -->
<g id="edge58" class="edge">
<title>hash&#45;&gt;token</title>
<path fill="none" stroke="dimgray" stroke-dasharray="5,2" d="M606.32,-29.86C561.78,-35.51 480.09,-49.73 417.27,-79.74 381.96,-96.6 346.84,-124.96 326.12,-145.13"/>
<polygon fill="dimgray" stroke="dimgray" points="323.46,-142.85 318.92,-152.42 328.43,-147.77 323.46,-142.85"/>
<text text-anchor="middle" x="324.97" y="-131.77" font-family="Times,serif" font-size="14.00">\</text>
</g>
<!-- hash&#45;&gt;token -->
<g id="edge63" class="edge">
<title>hash&#45;&gt;token</title>
<path fill="none" stroke="seagreen" stroke-dasharray="5,2" d="M607.19,-31.48C566.11,-38.03 492.79,-52.27 435.27,-79.74 398.24,-97.42 361.43,-127.74 336.82,-148.01"/>
<polygon fill="seagreen" stroke="seagreen" points="334.46,-145.42 328.96,-154.47 338.91,-150.83 334.46,-145.42"/>
<text text-anchor="middle" x="336.74" y="-134.54" font-family="Times,serif" font-size="14.00">abc</text>
</g>
<!-- quote&#45;&gt;limbo -->
<g id="edge64" class="edge">
<title>quote&#45;&gt;limbo</title>
<path fill="none" stroke="royalblue" stroke-dasharray="5,2" d="M481.5,-115.65C501.79,-145.48 544.31,-209.11 520.27,-259.74 514,-272.94 502.65,-283.94 491.71,-292.44"/>
<polygon fill="royalblue" stroke="royalblue" points="489.52,-289.7 483.52,-298.44 493.65,-295.35 489.52,-289.7"/>
<text text-anchor="middle" x="492.18" y="-278.96" font-family="Times,serif" font-size="14.00">ws</text>
</g>
<!-- quote&#45;&gt;limbo -->
<g id="edge67" class="edge">
<title>quote&#45;&gt;limbo</title>
<path fill="none" stroke="maroon" stroke-dasharray="5,2" d="M490.53,-113.8C517.96,-142.79 562.82,-208.04 538.27,-259.74 530.77,-275.53 516.01,-288.17 501.51,-297.14"/>
<polygon fill="maroon" stroke="maroon" points="499.53,-294.24 492.59,-302.24 503.01,-300.31 499.53,-294.24"/>
<text text-anchor="middle" x="502.97" y="-283.84" font-family="Times,serif" font-size="14.00">\</text>
</g>
<!-- quote&#45;&gt;limbo -->
<g id="edge69" class="edge">
<title>quote&#45;&gt;limbo</title>
<path fill="none" stroke="royalblue" stroke-dasharray="5,2" d="M497.57,-111.2C533.1,-138.72 581.59,-206.44 556.27,-259.74 547.17,-278.9 527.38,-293.42 507.03,-302.37"/>
<polygon fill="royalblue" stroke="royalblue" points="505.68,-299.14 497.68,-306.09 508.27,-305.64 505.68,-299.14"/>
<text text-anchor="middle" x="510.03" y="-289.29" font-family="Times,serif" font-size="14.00">nl</text>
</g>
<!-- quote&#45;&gt;paren -->
<g id="edge65" class="edge">
<title>quote&#45;&gt;paren</title>
<path fill="none" stroke="seagreen" stroke-dasharray="5,2" d="M471.3,-115.93C469.94,-140.16 467.43,-184.62 465.81,-213.42"/>
<polygon fill="seagreen" stroke="seagreen" points="462.31,-213.43 465.24,-223.61 469.29,-213.82 462.31,-213.43"/>
<text text-anchor="middle" x="458.56" y="-203.19" font-family="Times,serif" font-size="14.00">()</text>
</g>
<!-- quote&#45;&gt;paren -->
<g id="edge66" class="edge">
<title>quote&#45;&gt;paren</title>
<path fill="none" stroke="seagreen" stroke-dasharray="5,2" d="M480.44,-115.64C484.29,-140.07 482.28,-185.48 476.54,-214.35"/>
<polygon fill="seagreen" stroke="seagreen" points="473.11,-213.64 474.25,-224.17 479.93,-215.22 473.11,-213.64"/>
<text text-anchor="middle" x="470.54" y="-202.86" font-family="Times,serif" font-size="14.00">&quot;</text>
</g>
<!-- quote&#45;&gt;comment -->
<g id="edge68" class="edge">
<title>quote&#45;&gt;comment</title>
<path fill="none" stroke="seagreen" stroke-dasharray="5,2" d="M445.36,-85.18C419.49,-74.07 380.05,-57.13 350.28,-44.35"/>
<polygon fill="seagreen" stroke="seagreen" points="351.55,-41.08 340.98,-40.35 348.79,-47.52 351.55,-41.08"/>
<text text-anchor="middle" x="358.97" y="-36.1" font-family="Times,serif" font-size="14.00">;</text>
</g>
<!-- quote&#45;&gt;hash -->
<g id="edge70" class="edge">
<title>quote&#45;&gt;hash</title>
<path fill="none" stroke="seagreen" stroke-dasharray="5,2" d="M496.99,-84.06C524.85,-71.53 570.1,-52.44 601.94,-39.78"/>
<polygon fill="seagreen" stroke="seagreen" points="603.34,-42.99 611.36,-36.07 600.77,-36.48 603.34,-42.99"/>
<text text-anchor="middle" x="598.97" y="-45.43" font-family="Times,serif" font-size="14.00">#</text>
</g>
<!-- quote&#45;&gt;quote -->
<g id="edge71" class="edge">
<title>quote&#45;&gt;quote</title>
<path fill="none" stroke="seagreen" stroke-dasharray="5,2" d="M498.61,-110.54C513.52,-113.05 527.32,-108.78 527.32,-97.74 527.32,-89.29 519.23,-84.8 508.75,-84.29"/>
<polygon fill="seagreen" stroke="seagreen" points="508.37,-80.8 498.61,-84.93 508.81,-87.79 508.37,-80.8"/>
<text text-anchor="middle" x="514.41" y="-72.61" font-family="Times,serif" font-size="14.00">&#39;</text>
</g>
<!-- quote&#45;&gt;token -->
<g id="edge72" class="edge">
<title>quote&#45;&gt;token</title>
<path fill="none" stroke="seagreen" stroke-dasharray="5,2" d="M447.9,-111.42C421.01,-123.67 377.7,-142.19 346.36,-154.83"/>
<polygon fill="seagreen" stroke="seagreen" points="345.03,-151.6 337.05,-158.56 347.63,-158.09 345.03,-151.6"/>
<text text-anchor="middle" x="349.37" y="-141.74" font-family="Times,serif" font-size="14.00">abc</text>
</g>
<!-- token&#45;&gt;limbo -->
<g id="edge10" class="edge">
<title>token&#45;&gt;limbo</title>
<path fill="none" stroke="royalblue" stroke-dasharray="5,2" d="M321.63,-186.98C347.18,-212.84 402.52,-263.35 436.38,-291.86"/>
<polygon fill="royalblue" stroke="royalblue" points="434.57,-294.9 444.5,-298.6 439.05,-289.52 434.57,-294.9"/>
<text text-anchor="middle" x="427.09" y="-290.33" font-family="Times,serif" font-size="14.00">ws</text>
</g>
<!-- token&#45;&gt;limbo -->
<g id="edge15" class="edge">
<title>token&#45;&gt;limbo</title>
<path fill="none" stroke="royalblue" stroke-dasharray="5,2" d="M328.19,-184.99C358.04,-209.45 413.47,-259.63 443.68,-289.29"/>
<polygon fill="royalblue" stroke="royalblue" points="441.59,-292.15 451.14,-296.72 446.53,-287.19 441.59,-292.15"/>
<text text-anchor="middle" x="434.22" y="-286.9" font-family="Times,serif" font-size="14.00">nl</text>
</g>
<!-- token&#45;&gt;limbo -->
<g id="edge16" class="edge">
<title>token&#45;&gt;limbo</title>
<path fill="none" stroke="maroon" stroke-dasharray="5,2" d="M333.46,-182.81C368.48,-205.96 425.88,-257.02 452.72,-287.79"/>
<polygon fill="maroon" stroke="maroon" points="450.35,-290.42 459.43,-295.89 455.74,-285.96 450.35,-290.42"/>
<text text-anchor="middle" x="443.16" y="-284.48" font-family="Times,serif" font-size="14.00">#</text>
</g>
<!-- token&#45;&gt;paren -->
<g id="edge11" class="edge">
<title>token&#45;&gt;paren</title>
<path fill="none" stroke="seagreen" stroke-dasharray="5,2" d="M336.62,-181.22C363.35,-192.33 403.17,-210.05 431.29,-223.28"/>
<polygon fill="seagreen" stroke="seagreen" points="429.81,-226.45 440.34,-227.57 432.81,-220.12 429.81,-226.45"/>
<text text-anchor="middle" x="422.34" y="-223.75" font-family="Times,serif" font-size="14.00">()</text>
</g>
<!-- token&#45;&gt;string -->
<g id="edge12" class="edge">
<title>token&#45;&gt;string</title>
<path fill="none" stroke="seagreen" stroke-dasharray="5,2" d="M277.49,-160.01C233.45,-147.53 152.34,-124.55 102.96,-110.55"/>
<polygon fill="seagreen" stroke="seagreen" points="103.8,-107.15 93.23,-107.79 101.89,-113.89 103.8,-107.15"/>
<text text-anchor="middle" x="111" y="-101.22" font-family="Times,serif" font-size="14.00">&quot;</text>
</g>
<!-- token&#45;&gt;comment -->
<g id="edge14" class="edge">
<title>token&#45;&gt;comment</title>
<path fill="none" stroke="seagreen" stroke-dasharray="5,2" d="M308.39,-151.61C308.56,-127.41 308.88,-82.95 309.08,-54.13"/>
<polygon fill="seagreen" stroke="seagreen" points="312.58,-53.95 309.15,-43.93 305.58,-53.9 312.58,-53.95"/>
<text text-anchor="middle" x="316.64" y="-56.59" font-family="Times,serif" font-size="14.00">;</text>
</g>
<!-- token&#45;&gt;quote -->
<g id="edge17" class="edge">
<title>token&#45;&gt;quote</title>
<path fill="none" stroke="seagreen" stroke-dasharray="5,2" d="M332.63,-156.06C359.43,-143.85 402.55,-125.42 433.87,-112.77"/>
<polygon fill="seagreen" stroke="seagreen" points="435.19,-116.01 443.18,-109.04 432.59,-109.51 435.19,-116.01"/>
<text text-anchor="middle" x="430.86" y="-118.47" font-family="Times,serif" font-size="14.00">&#39;</text>
</g>
<!-- token&#45;&gt;token -->
<g id="edge13" class="edge">
<title>token&#45;&gt;token</title>
<path fill="none" stroke="dimgray" stroke-dasharray="5,2" d="M342.27,-176.49C353.6,-176.49 362.67,-174.24 362.67,-169.74 362.67,-166.71 358.58,-164.71 352.45,-163.71"/>
<polygon fill="dimgray" stroke="dimgray" points="352.49,-160.21 342.27,-162.99 352,-167.19 352.49,-160.21"/>
<text text-anchor="middle" x="359.08" y="-152.86" font-family="Times,serif" font-size="14.00">\</text>
</g>
<!-- token&#45;&gt;token -->
<g id="edge18" class="edge">
<title>token&#45;&gt;token</title>
<path fill="none" stroke="dimgray" stroke-dasharray="5,2" d="M336.13,-181.42C358.12,-185.94 380.67,-182.04 380.67,-169.74 380.67,-159.31 364.46,-154.92 346.14,-156.58"/>
<polygon fill="dimgray" stroke="dimgray" points="345.51,-153.13 336.13,-158.06 346.54,-160.06 345.51,-153.13"/>
<text text-anchor="middle" x="351.16" y="-144.45" font-family="Times,serif" font-size="14.00">abc</text>
</g>
<!-- escape&#45;&gt;string -->
<g id="edge28" class="edge">
<title>escape&#45;&gt;string</title>
<path fill="none" stroke="dimgray" stroke-dasharray="5,2" d="M27.11,-36.66C11.99,-48.2 9.97,-67.4 21.05,-80.99"/>
<polygon fill="dimgray" stroke="dimgray" points="18.83,-83.69 28.56,-87.87 23.56,-78.53 18.83,-83.69"/>
<text text-anchor="middle" x="11.4" y="-78.75" font-family="Times,serif" font-size="14.00">ws</text>
</g>
<!-- escape&#45;&gt;string -->
<g id="edge29" class="edge">
<title>escape&#45;&gt;string</title>
<path fill="none" stroke="dimgray" stroke-dasharray="5,2" d="M34.33,-39.74C27.08,-49.76 25.62,-63.82 29.95,-75.47"/>
<polygon fill="dimgray" stroke="dimgray" points="27.05,-77.47 34.94,-84.54 33.19,-74.1 27.05,-77.47"/>
<text text-anchor="middle" x="20.41" y="-70.22" font-family="Times,serif" font-size="14.00">()</text>
</g>
<!-- escape&#45;&gt;string -->
<g id="edge30" class="edge">
<title>escape&#45;&gt;string</title>
<path fill="none" stroke="dimgray" stroke-dasharray="5,2" d="M44.07,-42.38C41.05,-50.97 40.27,-61.82 41.75,-71.57"/>
<polygon fill="dimgray" stroke="dimgray" points="38.42,-72.69 44.24,-81.55 45.22,-71 38.42,-72.69"/>
<text text-anchor="middle" x="32.91" y="-63.86" font-family="Times,serif" font-size="14.00">&quot;</text>
</g>
<!-- escape&#45;&gt;string -->
<g id="edge31" class="edge">
<title>escape&#45;&gt;string</title>
<path fill="none" stroke="dimgray" stroke-dasharray="5,2" d="M55.36,-44.01C54.56,-51.77 54.33,-61.1 54.68,-69.74"/>
<polygon fill="dimgray" stroke="dimgray" points="51.2,-70.06 55.39,-79.79 58.18,-69.57 51.2,-70.06"/>
<text text-anchor="middle" x="46.65" y="-60.36" font-family="Times,serif" font-size="14.00">\</text>
</g>
<!-- escape&#45;&gt;string -->
<g id="edge32" class="edge">
<title>escape&#45;&gt;string</title>
<path fill="none" stroke="dimgray" stroke-dasharray="5,2" d="M67.19,-44.01C67.99,-51.77 68.21,-61.1 67.86,-69.74"/>
<polygon fill="dimgray" stroke="dimgray" points="64.37,-69.57 67.15,-79.79 71.35,-70.06 64.37,-69.57"/>
<text text-anchor="middle" x="60.72" y="-59.28" font-family="Times,serif" font-size="14.00">;</text>
</g>
<!-- escape&#45;&gt;string -->
<g id="edge33" class="edge">
<title>escape&#45;&gt;string</title>
<path fill="none" stroke="dimgray" stroke-dasharray="5,2" d="M78.47,-42.38C81.5,-50.97 82.27,-61.82 80.8,-71.57"/>
<polygon fill="dimgray" stroke="dimgray" points="77.33,-71 78.31,-81.55 84.12,-72.69 77.33,-71"/>
<text text-anchor="middle" x="74.87" y="-60.18" font-family="Times,serif" font-size="14.00">nl</text>
</g>
<!-- escape&#45;&gt;string -->
<g id="edge34" class="edge">
<title>escape&#45;&gt;string</title>
<path fill="none" stroke="dimgray" stroke-dasharray="5,2" d="M88.21,-39.74C95.46,-49.76 96.92,-63.82 92.6,-75.47"/>
<polygon fill="dimgray" stroke="dimgray" points="89.36,-74.1 87.61,-84.54 95.49,-77.47 89.36,-74.1"/>
<text text-anchor="middle" x="88.8" y="-62.88" font-family="Times,serif" font-size="14.00">#</text>
</g>
<!-- escape&#45;&gt;string -->
<g id="edge35" class="edge">
<title>escape&#45;&gt;string</title>
<path fill="none" stroke="dimgray" stroke-dasharray="5,2" d="M95.43,-36.66C110.56,-48.2 112.57,-67.4 101.49,-80.99"/>
<polygon fill="dimgray" stroke="dimgray" points="98.99,-78.53 93.98,-87.87 103.72,-83.69 98.99,-78.53"/>
<text text-anchor="middle" x="100.86" y="-67.54" font-family="Times,serif" font-size="14.00">&#39;</text>
</g>
<!-- escape&#45;&gt;string -->
<g id="edge36" class="edge">
<title>escape&#45;&gt;string</title>
<path fill="none" stroke="dimgray" stroke-dasharray="5,2" d="M99.56,-33.75C127.27,-46.16 129.34,-72.05 105.77,-86.47"/>
<polygon fill="dimgray" stroke="dimgray" points="104.21,-83.34 96.79,-90.89 107.3,-89.62 104.21,-83.34"/>
<text text-anchor="middle" x="108.07" y="-73.16" font-family="Times,serif" font-size="14.00">abc</text>
</g>
</g>
</svg>
