<?xml version="1.0" encoding="UTF-8" standalone="no"?>
<!DOCTYPE svg PUBLIC "-//W3C//DTD SVG 1.1//EN"
 "http://www.w3.org/Graphics/SVG/1.1/DTD/svg11.dtd">
<!-- Generated by graphviz version 2.42.3 (20191010.1750)
 -->
<!-- Title: %3 Pages: 1 -->
<svg width="690pt" height="558pt"
 viewBox="0.00 0.00 690.25 557.56" xmlns="http://www.w3.org/2000/svg" xmlns:xlink="http://www.w3.org/1999/xlink">
<g id="graph0" class="graph" transform="scale(1 1) rotate(0) translate(4 553.56)">
<title>%3</title>
<polygon fill="white" stroke="transparent" points="-4,4 -4,-553.56 686.25,-553.56 686.25,4 -4,4"/>
<!-- libmo -->
<g id="node1" class="node">
<title>libmo</title>
<ellipse fill="none" stroke="black" cx="464.26" cy="-513.17" rx="36.29" ry="36.29"/>
<text text-anchor="middle" x="464.26" y="-509.47" font-family="Times,serif" font-size="14.00">libmo</text>
</g>
<!-- libmo&#45;&gt;libmo -->
<g id="edge1" class="edge">
<title>libmo&#45;&gt;libmo</title>
<path fill="none" stroke="orange" stroke-dasharray="5,2" d="M500.09,-520.02C510.55,-519.78 518.65,-517.5 518.65,-513.17 518.65,-510.39 515.33,-508.46 510.19,-507.36"/>
<polygon fill="orange" stroke="orange" points="510.4,-503.86 500.09,-506.31 509.68,-510.83 510.4,-503.86"/>
<text text-anchor="middle" x="517.1" y="-496.73" font-family="Times,serif" font-size="14.00">ws</text>
</g>
<!-- libmo&#45;&gt;libmo -->
<g id="edge4" class="edge">
<title>libmo&#45;&gt;libmo</title>
<path fill="none" stroke="red" stroke-dasharray="5,2" d="M498.52,-526.16C518.27,-528.81 536.65,-524.48 536.65,-513.17 536.65,-503.8 524.05,-499.22 508.5,-499.42"/>
<polygon fill="red" stroke="red" points="508.23,-495.93 498.52,-500.17 508.75,-502.91 508.23,-495.93"/>
<text text-anchor="middle" x="514.22" y="-487.67" font-family="Times,serif" font-size="14.00">\</text>
</g>
<!-- libmo&#45;&gt;libmo -->
<g id="edge6" class="edge">
<title>libmo&#45;&gt;libmo</title>
<path fill="none" stroke="orange" stroke-dasharray="5,2" d="M496.7,-530.39C524.86,-538.24 554.65,-532.5 554.65,-513.17 554.65,-496.1 531.43,-489.62 506.61,-493.74"/>
<polygon fill="orange" stroke="orange" points="505.7,-490.36 496.7,-495.95 507.22,-497.2 505.7,-490.36"/>
<text text-anchor="middle" x="510.97" y="-481.28" font-family="Times,serif" font-size="14.00">nl</text>
</g>
<!-- paren -->
<g id="node2" class="node">
<title>paren</title>
<ellipse fill="none" stroke="black" cx="464.26" cy="-403.07" rx="37.89" ry="37.89"/>
<text text-anchor="middle" x="464.26" y="-399.37" font-family="Times,serif" font-size="14.00">paren</text>
</g>
<!-- libmo&#45;&gt;paren -->
<g id="edge2" class="edge">
<title>libmo&#45;&gt;paren</title>
<path fill="none" stroke="orange" stroke-dasharray="5,2" d="M445.84,-481.77C444.02,-470.76 443.56,-458.11 444.45,-446.27"/>
<polygon fill="orange" stroke="orange" points="447.95,-446.45 445.58,-436.13 440.99,-445.68 447.95,-446.45"/>
<text text-anchor="middle" x="451.33" y="-449.48" font-family="Times,serif" font-size="14.00">()</text>
</g>
<!-- string -->
<g id="node3" class="node">
<title>string</title>
<ellipse fill="none" stroke="black" cx="61.26" cy="-182.24" rx="38.19" ry="38.19"/>
<text text-anchor="middle" x="61.26" y="-178.54" font-family="Times,serif" font-size="14.00">string</text>
</g>
<!-- libmo&#45;&gt;string -->
<g id="edge3" class="edge">
<title>libmo&#45;&gt;string</title>
<path fill="none" stroke="orange" stroke-dasharray="5,2" d="M427.93,-510.71C373.43,-506.83 270.34,-492.65 203.26,-440.77 132.53,-386.07 88.55,-288.14 70.15,-230.08"/>
<polygon fill="orange" stroke="orange" points="73.47,-228.97 67.21,-220.42 66.77,-231.01 73.47,-228.97"/>
<text text-anchor="middle" x="79.23" y="-230.12" font-family="Times,serif" font-size="14.00">&quot;</text>
</g>
<!-- comment -->
<g id="node4" class="node">
<title>comment</title>
<ellipse fill="none" stroke="black" cx="309.26" cy="-53.95" rx="53.89" ry="53.89"/>
<text text-anchor="middle" x="309.26" y="-50.25" font-family="Times,serif" font-size="14.00">comment</text>
</g>
<!-- libmo&#45;&gt;comment -->
<g id="edge5" class="edge">
<title>libmo&#45;&gt;comment</title>
<path fill="none" stroke="orange" stroke-dasharray="5,2" d="M430.75,-498.13C379.56,-472.43 285.22,-412.72 254.26,-329.38 227.09,-256.24 252.51,-166.15 277.24,-109.62"/>
<polygon fill="orange" stroke="orange" points="280.43,-111.05 281.35,-100.49 274.05,-108.17 280.43,-111.05"/>
<text text-anchor="middle" x="281.58" y="-114.79" font-family="Times,serif" font-size="14.00">;</text>
</g>
<!-- hash -->
<g id="node5" class="node">
<title>hash</title>
<ellipse fill="none" stroke="black" cx="638.26" cy="-53.95" rx="32.49" ry="32.49"/>
<text text-anchor="middle" x="638.26" y="-50.25" font-family="Times,serif" font-size="14.00">hash</text>
</g>
<!-- libmo&#45;&gt;hash -->
<g id="edge7" class="edge">
<title>libmo&#45;&gt;hash</title>
<path fill="none" stroke="orange" stroke-dasharray="5,2" d="M485.41,-483.51C501.11,-472.58 518.7,-458.4 530.26,-440.77 603.17,-329.61 601.39,-162.69 616.69,-90.41"/>
<polygon fill="orange" stroke="orange" points="620.15,-90.99 619.08,-80.45 613.34,-89.36 620.15,-90.99"/>
<text text-anchor="middle" x="622.66" y="-94.39" font-family="Times,serif" font-size="14.00">#</text>
</g>
<!-- quote -->
<g id="node6" class="node">
<title>quote</title>
<ellipse fill="none" stroke="black" cx="472.26" cy="-182.24" rx="37.09" ry="37.09"/>
<text text-anchor="middle" x="472.26" y="-178.54" font-family="Times,serif" font-size="14.00">quote</text>
</g>
<!-- libmo&#45;&gt;quote -->
<g id="edge8" class="edge">
<title>libmo&#45;&gt;quote</title>
<path fill="none" stroke="orange" stroke-dasharray="5,2" d="M477.81,-479.15C486.95,-468.13 496.75,-455 502.26,-440.77 529.9,-369.36 497.1,-281.35 478.56,-228.9"/>
<polygon fill="orange" stroke="orange" points="481.78,-227.5 475.18,-219.22 475.17,-229.82 481.78,-227.5"/>
<text text-anchor="middle" x="487.74" y="-228.41" font-family="Times,serif" font-size="14.00">&#39;</text>
</g>
<!-- token -->
<g id="node7" class="node">
<title>token</title>
<ellipse fill="none" stroke="black" cx="308.26" cy="-292.98" rx="36.29" ry="36.29"/>
<text text-anchor="middle" x="308.26" y="-289.28" font-family="Times,serif" font-size="14.00">token</text>
</g>
<!-- libmo&#45;&gt;token -->
<g id="edge9" class="edge">
<title>libmo&#45;&gt;token</title>
<path fill="none" stroke="orange" stroke-dasharray="5,2" d="M435.61,-490.05C401.59,-454.29 349.52,-383.18 322.6,-337.14"/>
<polygon fill="orange" stroke="orange" points="325.55,-335.24 317.56,-328.28 319.46,-338.71 325.55,-335.24"/>
<text text-anchor="middle" x="332.24" y="-335" font-family="Times,serif" font-size="14.00">abc</text>
</g>
<!-- paren&#45;&gt;libmo -->
<g id="edge37" class="edge">
<title>paren&#45;&gt;libmo</title>
<path fill="none" stroke="blue" stroke-dasharray="5,2" d="M457.84,-440.48C457.51,-448.97 457.42,-458.11 457.59,-466.93"/>
<polygon fill="blue" stroke="blue" points="454.09,-467.18 457.89,-477.07 461.09,-466.97 454.09,-467.18"/>
<text text-anchor="middle" x="449.8" y="-457.29" font-family="Times,serif" font-size="14.00">ws</text>
</g>
<!-- paren&#45;&gt;libmo -->
<g id="edge40" class="edge">
<title>paren&#45;&gt;libmo</title>
<path fill="none" stroke="red" stroke-dasharray="5,2" d="M470.68,-440.48C471.01,-448.97 471.09,-458.11 470.93,-466.93"/>
<polygon fill="red" stroke="red" points="467.42,-466.97 470.62,-477.07 474.42,-467.18 467.42,-466.97"/>
<text text-anchor="middle" x="463.51" y="-456.84" font-family="Times,serif" font-size="14.00">\</text>
</g>
<!-- paren&#45;&gt;libmo -->
<g id="edge42" class="edge">
<title>paren&#45;&gt;libmo</title>
<path fill="none" stroke="blue" stroke-dasharray="5,2" d="M482.94,-436.13C484.62,-447.3 484.95,-459.97 483.92,-471.73"/>
<polygon fill="blue" stroke="blue" points="480.44,-471.41 482.67,-481.77 487.38,-472.28 480.44,-471.41"/>
<text text-anchor="middle" x="477.14" y="-460.94" font-family="Times,serif" font-size="14.00">nl</text>
</g>
<!-- paren&#45;&gt;paren -->
<g id="edge38" class="edge">
<title>paren&#45;&gt;paren</title>
<path fill="none" stroke="darkgreen" stroke-dasharray="5,2" d="M496.03,-423.55C509.01,-424.83 519.95,-418.01 519.95,-403.07 519.95,-392.23 514.17,-385.66 506.04,-383.37"/>
<polygon fill="darkgreen" stroke="darkgreen" points="506.27,-379.87 496.03,-382.6 505.73,-386.85 506.27,-379.87"/>
<text text-anchor="middle" x="512.88" y="-372.56" font-family="Times,serif" font-size="14.00">()</text>
</g>
<!-- paren&#45;&gt;string -->
<g id="edge39" class="edge">
<title>paren&#45;&gt;string</title>
<path fill="none" stroke="darkgreen" stroke-dasharray="5,2" d="M427.76,-392.23C386.47,-380.33 317.87,-358.27 263.26,-329.38 201.28,-296.59 136.87,-246.78 97.91,-214.63"/>
<polygon fill="darkgreen" stroke="darkgreen" points="99.92,-211.75 89.99,-208.04 95.44,-217.13 99.92,-211.75"/>
<text text-anchor="middle" x="107.4" y="-208.92" font-family="Times,serif" font-size="14.00">&quot;</text>
</g>
<!-- paren&#45;&gt;comment -->
<g id="edge41" class="edge">
<title>paren&#45;&gt;comment</title>
<path fill="none" stroke="darkgreen" stroke-dasharray="5,2" d="M449.25,-368.47C422.86,-309.36 367.83,-186.12 335.18,-112.99"/>
<polygon fill="darkgreen" stroke="darkgreen" points="338.19,-111.16 330.92,-103.46 331.8,-114.01 338.19,-111.16"/>
<text text-anchor="middle" x="344.52" y="-111.55" font-family="Times,serif" font-size="14.00">;</text>
</g>
<!-- paren&#45;&gt;hash -->
<g id="edge43" class="edge">
<title>paren&#45;&gt;hash</title>
<path fill="none" stroke="darkgreen" stroke-dasharray="5,2" d="M477.33,-367.52C507.17,-301.35 579.32,-157.39 616.16,-90.47"/>
<polygon fill="darkgreen" stroke="darkgreen" points="619.31,-91.99 621.11,-81.55 613.2,-88.59 619.31,-91.99"/>
<text text-anchor="middle" x="619.84" y="-95.81" font-family="Times,serif" font-size="14.00">#</text>
</g>
<!-- paren&#45;&gt;quote -->
<g id="edge44" class="edge">
<title>paren&#45;&gt;quote</title>
<path fill="none" stroke="darkgreen" stroke-dasharray="5,2" d="M455.28,-366.43C452.67,-328.58 454.58,-268.68 459.51,-227.76"/>
<polygon fill="darkgreen" stroke="darkgreen" points="462.99,-228.16 460.83,-217.79 456.05,-227.24 462.99,-228.16"/>
<text text-anchor="middle" x="466.23" y="-231.25" font-family="Times,serif" font-size="14.00">&#39;</text>
</g>
<!-- paren&#45;&gt;token -->
<g id="edge45" class="edge">
<title>paren&#45;&gt;token</title>
<path fill="none" stroke="darkgreen" stroke-dasharray="5,2" d="M431.82,-383.25C406.13,-366.6 370.44,-342.06 343.96,-322.92"/>
<polygon fill="darkgreen" stroke="darkgreen" points="345.85,-319.97 335.71,-316.91 341.73,-325.62 345.85,-319.97"/>
<text text-anchor="middle" x="353.38" y="-316.66" font-family="Times,serif" font-size="14.00">abc</text>
</g>
<!-- string&#45;&gt;libmo -->
<g id="edge21" class="edge">
<title>string&#45;&gt;libmo</title>
<path fill="none" stroke="blue" stroke-dasharray="5,2" d="M77.4,-217.24C99.84,-272.57 145,-381.79 221.26,-440.77 279.6,-485.89 365.16,-502.49 417.75,-508.61"/>
<polygon fill="blue" stroke="blue" points="417.49,-512.1 427.81,-509.7 418.25,-505.14 417.49,-512.1"/>
<text text-anchor="middle" x="410.77" y="-511.8" font-family="Times,serif" font-size="14.00">&quot;</text>
</g>
<!-- string&#45;&gt;string -->
<g id="edge19" class="edge">
<title>string&#45;&gt;string</title>
<path fill="none" stroke="gray" stroke-dasharray="5,2" d="M99.71,-185.16C109.89,-184.99 117.6,-184.02 117.6,-182.24 117.6,-181.12 114.59,-180.33 109.84,-179.84"/>
<polygon fill="gray" stroke="gray" points="109.88,-176.34 99.71,-179.32 109.51,-183.33 109.88,-176.34"/>
<text text-anchor="middle" x="116.39" y="-168.87" font-family="Times,serif" font-size="14.00">ws</text>
</g>
<!-- string&#45;&gt;string -->
<g id="edge20" class="edge">
<title>string&#45;&gt;string</title>
<path fill="none" stroke="gray" stroke-dasharray="5,2" d="M99.51,-187.96C118.59,-188.75 135.6,-186.84 135.6,-182.24 135.6,-178.5 124.37,-176.54 109.92,-176.36"/>
<polygon fill="gray" stroke="gray" points="109.45,-172.86 99.51,-176.52 109.56,-179.86 109.45,-172.86"/>
<text text-anchor="middle" x="115.7" y="-164.96" font-family="Times,serif" font-size="14.00">()</text>
</g>
<!-- string&#45;&gt;string -->
<g id="edge23" class="edge">
<title>string&#45;&gt;string</title>
<path fill="none" stroke="gray" stroke-dasharray="5,2" d="M99.2,-190.12C126.45,-192.69 153.6,-190.06 153.6,-182.24 153.6,-175.39 132.82,-172.52 109.36,-173.63"/>
<polygon fill="gray" stroke="gray" points="108.93,-170.15 99.2,-174.35 109.42,-177.13 108.93,-170.15"/>
<text text-anchor="middle" x="114.94" y="-161.91" font-family="Times,serif" font-size="14.00">;</text>
</g>
<!-- string&#45;&gt;string -->
<g id="edge24" class="edge">
<title>string&#45;&gt;string</title>
<path fill="none" stroke="gray" stroke-dasharray="5,2" d="M98.57,-191.77C133.6,-196.71 171.6,-193.53 171.6,-182.24 171.6,-172.05 140.66,-168.46 108.88,-171.49"/>
<polygon fill="gray" stroke="gray" points="108.09,-168.06 98.57,-172.71 108.91,-175.01 108.09,-168.06"/>
<text text-anchor="middle" x="113.88" y="-159.54" font-family="Times,serif" font-size="14.00">nl</text>
</g>
<!-- string&#45;&gt;string -->
<g id="edge25" class="edge">
<title>string&#45;&gt;string</title>
<path fill="none" stroke="gray" stroke-dasharray="5,2" d="M98.37,-193.11C140.72,-200.71 189.6,-197.08 189.6,-182.24 189.6,-168.55 148.06,-164.4 108.39,-169.79"/>
<polygon fill="gray" stroke="gray" points="107.71,-166.35 98.37,-171.36 108.8,-173.27 107.71,-166.35"/>
<text text-anchor="middle" x="113.31" y="-157.61" font-family="Times,serif" font-size="14.00">#</text>
</g>
<!-- string&#45;&gt;string -->
<g id="edge26" class="edge">
<title>string&#45;&gt;string</title>
<path fill="none" stroke="gray" stroke-dasharray="5,2" d="M98,-194.17C147.46,-204.72 207.6,-200.74 207.6,-182.24 207.6,-164.96 155.18,-160.35 107.98,-168.4"/>
<polygon fill="gray" stroke="gray" points="107.17,-164.99 98,-170.31 108.48,-171.86 107.17,-164.99"/>
<text text-anchor="middle" x="112.59" y="-156.07" font-family="Times,serif" font-size="14.00">&#39;</text>
</g>
<!-- string&#45;&gt;string -->
<g id="edge27" class="edge">
<title>string&#45;&gt;string</title>
<path fill="none" stroke="gray" stroke-dasharray="5,2" d="M97.58,-195.01C153.97,-208.73 225.6,-204.47 225.6,-182.24 225.6,-161.3 162.12,-156.31 107.63,-167.24"/>
<polygon fill="gray" stroke="gray" points="106.59,-163.89 97.58,-169.47 108.1,-170.72 106.59,-163.89"/>
<text text-anchor="middle" x="111.86" y="-154.81" font-family="Times,serif" font-size="14.00">abc</text>
</g>
<!-- escape -->
<g id="node8" class="node">
<title>escape</title>
<ellipse fill="none" stroke="black" cx="61.26" cy="-53.95" rx="42.49" ry="42.49"/>
<text text-anchor="middle" x="61.26" y="-50.25" font-family="Times,serif" font-size="14.00">escape</text>
</g>
<!-- string&#45;&gt;escape -->
<g id="edge22" class="edge">
<title>string&#45;&gt;escape</title>
<path fill="none" stroke="gray" stroke-dasharray="5,2" d="M24.83,-170.03C-3.58,-149.04 -7.1,-103.49 14.27,-76.41"/>
<polygon fill="gray" stroke="gray" points="16.98,-78.64 21.33,-68.98 11.9,-73.82 16.98,-78.64"/>
<text text-anchor="middle" x="15.62" y="-82.35" font-family="Times,serif" font-size="14.00">\</text>
</g>
<!-- comment&#45;&gt;libmo -->
<g id="edge51" class="edge">
<title>comment&#45;&gt;libmo</title>
<path fill="none" stroke="blue" stroke-dasharray="5,2" d="M292.3,-105.23C271.88,-161.41 244.38,-254.32 272.26,-329.38 299.7,-403.26 376.96,-458.57 424.8,-488.08"/>
<polygon fill="blue" stroke="blue" points="423.01,-491.08 433.37,-493.28 426.64,-485.1 423.01,-491.08"/>
<text text-anchor="middle" x="415.48" y="-487.62" font-family="Times,serif" font-size="14.00">nl</text>
</g>
<!-- comment&#45;&gt;comment -->
<g id="edge46" class="edge">
<title>comment&#45;&gt;comment</title>
<path fill="none" stroke="gray" stroke-dasharray="5,2" d="M363.22,-56.81C373.74,-56.48 381.2,-55.52 381.2,-53.95 381.2,-52.96 378.29,-52.22 373.53,-51.72"/>
<polygon fill="gray" stroke="gray" points="373.42,-48.2 363.22,-51.08 372.99,-55.19 373.42,-48.2"/>
<text text-anchor="middle" x="379.97" y="-40.79" font-family="Times,serif" font-size="14.00">ws</text>
</g>
<!-- comment&#45;&gt;comment -->
<g id="edge47" class="edge">
<title>comment&#45;&gt;comment</title>
<path fill="none" stroke="gray" stroke-dasharray="5,2" d="M363.26,-59.94C383.02,-60.1 399.2,-58.1 399.2,-53.95 399.2,-50.54 388.31,-48.58 373.49,-48.08"/>
<polygon fill="gray" stroke="gray" points="373.3,-44.57 363.26,-47.95 373.22,-51.57 373.3,-44.57"/>
<text text-anchor="middle" x="379.66" y="-36.84" font-family="Times,serif" font-size="14.00">()</text>
</g>
<!-- comment&#45;&gt;comment -->
<g id="edge48" class="edge">
<title>comment&#45;&gt;comment</title>
<path fill="none" stroke="gray" stroke-dasharray="5,2" d="M362.57,-62.57C391.16,-64.04 417.2,-61.16 417.2,-53.95 417.2,-47.6 397.09,-44.61 372.81,-44.97"/>
<polygon fill="gray" stroke="gray" points="372.45,-41.48 362.57,-45.32 372.69,-48.48 372.45,-41.48"/>
<text text-anchor="middle" x="378.63" y="-33.47" font-family="Times,serif" font-size="14.00">&quot;</text>
</g>
<!-- comment&#45;&gt;comment -->
<g id="edge49" class="edge">
<title>comment&#45;&gt;comment</title>
<path fill="none" stroke="gray" stroke-dasharray="5,2" d="M362.32,-64.77C399.04,-68.05 435.2,-64.45 435.2,-53.95 435.2,-44.43 405.5,-40.57 372.6,-42.38"/>
<polygon fill="gray" stroke="gray" points="372.04,-38.91 362.32,-43.12 372.54,-45.89 372.04,-38.91"/>
<text text-anchor="middle" x="378.04" y="-30.66" font-family="Times,serif" font-size="14.00">\</text>
</g>
<!-- comment&#45;&gt;comment -->
<g id="edge50" class="edge">
<title>comment&#45;&gt;comment</title>
<path fill="none" stroke="gray" stroke-dasharray="5,2" d="M362.03,-66.61C406.55,-72.11 453.2,-67.89 453.2,-53.95 453.2,-41.06 413.38,-36.48 372.22,-40.19"/>
<polygon fill="gray" stroke="gray" points="371.6,-36.74 362.03,-41.28 372.35,-43.7 371.6,-36.74"/>
<text text-anchor="middle" x="377.45" y="-28.28" font-family="Times,serif" font-size="14.00">;</text>
</g>
<!-- comment&#45;&gt;comment -->
<g id="edge52" class="edge">
<title>comment&#45;&gt;comment</title>
<path fill="none" stroke="gray" stroke-dasharray="5,2" d="M361.5,-68.12C413.59,-76.2 471.2,-71.48 471.2,-53.95 471.2,-37.54 420.78,-32.35 371.62,-38.37"/>
<polygon fill="gray" stroke="gray" points="370.92,-34.93 361.5,-39.77 371.89,-41.86 370.92,-34.93"/>
<text text-anchor="middle" x="376.62" y="-26.3" font-family="Times,serif" font-size="14.00">#</text>
</g>
<!-- comment&#45;&gt;comment -->
<g id="edge53" class="edge">
<title>comment&#45;&gt;comment</title>
<path fill="none" stroke="gray" stroke-dasharray="5,2" d="M361.3,-69.45C420.66,-80.28 489.2,-75.11 489.2,-53.95 489.2,-33.98 428.21,-28.25 371.46,-36.76"/>
<polygon fill="gray" stroke="gray" points="370.59,-33.35 361.3,-38.44 371.73,-40.26 370.59,-33.35"/>
<text text-anchor="middle" x="376.14" y="-24.57" font-family="Times,serif" font-size="14.00">&#39;</text>
</g>
<!-- comment&#45;&gt;comment -->
<g id="edge54" class="edge">
<title>comment&#45;&gt;comment</title>
<path fill="none" stroke="gray" stroke-dasharray="5,2" d="M360.71,-70.51C427.26,-84.37 507.2,-78.85 507.2,-53.95 507.2,-30.26 434.88,-24.1 370.54,-35.49"/>
<polygon fill="gray" stroke="gray" points="369.87,-32.06 360.71,-37.38 371.19,-38.93 369.87,-32.06"/>
<text text-anchor="middle" x="375.29" y="-23.13" font-family="Times,serif" font-size="14.00">abc</text>
</g>
<!-- hash&#45;&gt;libmo -->
<g id="edge55" class="edge">
<title>hash&#45;&gt;libmo</title>
<path fill="none" stroke="red" stroke-dasharray="5,2" d="M627.24,-84.67C619.23,-153.48 623.17,-326.56 548.26,-440.77 536.38,-458.88 518.14,-473.35 501.21,-484.4"/>
<polygon fill="red" stroke="red" points="499.12,-481.58 492.52,-489.87 502.85,-487.5 499.12,-481.58"/>
<text text-anchor="middle" x="502.28" y="-471.04" font-family="Times,serif" font-size="14.00">ws</text>
</g>
<!-- hash&#45;&gt;libmo -->
<g id="edge57" class="edge">
<title>hash&#45;&gt;libmo</title>
<path fill="none" stroke="red" stroke-dasharray="5,2" d="M636.52,-86.49C637.3,-156.48 640.52,-327.55 566.26,-440.77 551.52,-463.23 527,-480.1 505.61,-491.78"/>
<polygon fill="red" stroke="red" points="503.9,-488.72 496.67,-496.47 507.16,-494.92 503.9,-488.72"/>
<text text-anchor="middle" x="507.58" y="-478.45" font-family="Times,serif" font-size="14.00">&quot;</text>
</g>
<!-- hash&#45;&gt;libmo -->
<g id="edge59" class="edge">
<title>hash&#45;&gt;libmo</title>
<path fill="none" stroke="red" stroke-dasharray="5,2" d="M645.89,-85.7C655.27,-155.19 658.8,-327.13 584.26,-440.77 566.63,-467.65 534.99,-486.51 508.51,-498.06"/>
<polygon fill="red" stroke="red" points="506.92,-494.93 499.02,-501.99 509.6,-501.4 506.92,-494.93"/>
<text text-anchor="middle" x="511.18" y="-485.02" font-family="Times,serif" font-size="14.00">;</text>
</g>
<!-- hash&#45;&gt;libmo -->
<g id="edge60" class="edge">
<title>hash&#45;&gt;libmo</title>
<path fill="none" stroke="red" stroke-dasharray="5,2" d="M654.39,-82.4C673.14,-149.6 678.01,-325.28 602.26,-440.77 581.87,-471.85 542.75,-492.21 509.95,-502.96"/>
<polygon fill="red" stroke="red" points="508.55,-499.72 500.01,-505.98 510.59,-506.42 508.55,-499.72"/>
<text text-anchor="middle" x="513.4" y="-490.26" font-family="Times,serif" font-size="14.00">nl</text>
</g>
<!-- hash&#45;&gt;libmo -->
<g id="edge61" class="edge">
<title>hash&#45;&gt;libmo</title>
<path fill="none" stroke="red" stroke-dasharray="5,2" d="M661.05,-77.19C690.81,-140.06 698.06,-322.16 620.26,-440.77 597.5,-475.46 551.4,-496.8 510.45,-506.31"/>
<polygon fill="red" stroke="red" points="509.5,-502.94 500.44,-508.43 510.94,-509.79 509.5,-502.94"/>
<text text-anchor="middle" x="514.83" y="-493.91" font-family="Times,serif" font-size="14.00">#</text>
</g>
<!-- hash&#45;&gt;paren -->
<g id="edge56" class="edge">
<title>hash&#45;&gt;paren</title>
<path fill="none" stroke="darkgreen" stroke-dasharray="5,2" d="M627.17,-85.05C599.35,-147.5 527.5,-291.17 489.06,-361.62"/>
<polygon fill="darkgreen" stroke="darkgreen" points="485.84,-360.21 484.09,-370.66 491.97,-363.58 485.84,-360.21"/>
<text text-anchor="middle" x="485.28" y="-349" font-family="Times,serif" font-size="14.00">()</text>
</g>
<!-- hash&#45;&gt;quote -->
<g id="edge62" class="edge">
<title>hash&#45;&gt;quote</title>
<path fill="none" stroke="darkgreen" stroke-dasharray="5,2" d="M614.96,-76.66C588.09,-98.55 543.78,-132.34 511.58,-155.55"/>
<polygon fill="darkgreen" stroke="darkgreen" points="509.35,-152.84 503.26,-161.5 513.43,-158.53 509.35,-152.84"/>
<text text-anchor="middle" x="512.1" y="-142.12" font-family="Times,serif" font-size="14.00">&#39;</text>
</g>
<!-- hash&#45;&gt;token -->
<g id="edge58" class="edge">
<title>hash&#45;&gt;token</title>
<path fill="none" stroke="gray" stroke-dasharray="5,2" d="M607.74,-65.5C580.98,-76.33 541.57,-93.59 507.26,-107.89 467.49,-124.47 451.83,-118.19 417.26,-143.89 378.55,-172.66 345.46,-217.09 325.94,-249.79"/>
<polygon fill="gray" stroke="gray" points="322.78,-248.26 320.81,-258.67 328.84,-251.77 322.78,-248.26"/>
<text text-anchor="middle" x="322.39" y="-237.04" font-family="Times,serif" font-size="14.00">\</text>
</g>
<!-- hash&#45;&gt;token -->
<g id="edge63" class="edge">
<title>hash&#45;&gt;token</title>
<path fill="none" stroke="darkgreen" stroke-dasharray="5,2" d="M610.23,-70.74C587.34,-81.41 554.45,-95.72 525.26,-107.89 485.49,-124.47 469.83,-118.19 435.26,-143.89 394.21,-174.41 359.47,-222.53 336.51,-255.59"/>
<polygon fill="darkgreen" stroke="darkgreen" points="333.45,-253.86 330.64,-264.07 339.21,-257.84 333.45,-253.86"/>
<text text-anchor="middle" x="333.67" y="-242.63" font-family="Times,serif" font-size="14.00">abc</text>
</g>
<!-- quote&#45;&gt;libmo -->
<g id="edge64" class="edge">
<title>quote&#45;&gt;libmo</title>
<path fill="none" stroke="blue" stroke-dasharray="5,2" d="M485.95,-216.69C509.29,-266.74 550.17,-363.47 520.26,-440.77 514.9,-454.61 505.48,-467.41 495.81,-478.24"/>
<polygon fill="blue" stroke="blue" points="493.05,-476.07 488.79,-485.77 498.17,-480.85 493.05,-476.07"/>
<text text-anchor="middle" x="494.36" y="-464.95" font-family="Times,serif" font-size="14.00">ws</text>
</g>
<!-- quote&#45;&gt;libmo -->
<g id="edge67" class="edge">
<title>quote&#45;&gt;libmo</title>
<path fill="none" stroke="red" stroke-dasharray="5,2" d="M494.68,-211.87C524.5,-260.31 569.16,-360.91 538.26,-440.77 531.26,-458.84 517.33,-475.15 503.33,-487.6"/>
<polygon fill="red" stroke="red" points="500.99,-485 495.58,-494.11 505.49,-490.36 500.99,-485"/>
<text text-anchor="middle" x="503.18" y="-474.09" font-family="Times,serif" font-size="14.00">\</text>
</g>
<!-- quote&#45;&gt;libmo -->
<g id="edge69" class="edge">
<title>quote&#45;&gt;libmo</title>
<path fill="none" stroke="blue" stroke-dasharray="5,2" d="M500.98,-205.95C538.54,-251.66 588.49,-357.49 556.26,-440.77 547.52,-463.34 527.97,-483.16 507.73,-496.16"/>
<polygon fill="blue" stroke="blue" points="505.87,-493.19 499.04,-501.29 509.43,-499.21 505.87,-493.19"/>
<text text-anchor="middle" x="509.21" y="-482.74" font-family="Times,serif" font-size="14.00">nl</text>
</g>
<!-- quote&#45;&gt;paren -->
<g id="edge65" class="edge">
<title>quote&#45;&gt;paren</title>
<path fill="none" stroke="darkgreen" stroke-dasharray="5,2" d="M470.93,-219.45C469.58,-256.47 467.47,-314.15 465.99,-354.76"/>
<polygon fill="darkgreen" stroke="darkgreen" points="462.48,-354.83 465.61,-364.95 469.48,-355.09 462.48,-354.83"/>
<text text-anchor="middle" x="458.61" y="-344.67" font-family="Times,serif" font-size="14.00">()</text>
</g>
<!-- quote&#45;&gt;paren -->
<g id="edge66" class="edge">
<title>quote&#45;&gt;paren</title>
<path fill="none" stroke="darkgreen" stroke-dasharray="5,2" d="M481.19,-218.31C483.85,-255.92 481.98,-315.77 477.08,-356.89"/>
<polygon fill="darkgreen" stroke="darkgreen" points="473.6,-356.54 475.77,-366.91 480.54,-357.45 473.6,-356.54"/>
<text text-anchor="middle" x="470.34" y="-346.05" font-family="Times,serif" font-size="14.00">&quot;</text>
</g>
<!-- quote&#45;&gt;comment -->
<g id="edge68" class="edge">
<title>quote&#45;&gt;comment</title>
<path fill="none" stroke="darkgreen" stroke-dasharray="5,2" d="M443.12,-158.66C419.95,-140.71 386.99,-115.17 359.57,-93.93"/>
<polygon fill="darkgreen" stroke="darkgreen" points="361.68,-91.13 351.63,-87.77 357.39,-96.67 361.68,-91.13"/>
<text text-anchor="middle" x="369.18" y="-88.05" font-family="Times,serif" font-size="14.00">;</text>
</g>
<!-- quote&#45;&gt;hash -->
<g id="edge70" class="edge">
<title>quote&#45;&gt;hash</title>
<path fill="none" stroke="darkgreen" stroke-dasharray="5,2" d="M499.18,-156.59C527.37,-133.82 571.53,-100.25 602.59,-78.01"/>
<polygon fill="darkgreen" stroke="darkgreen" points="604.85,-80.69 610.98,-72.05 600.8,-74.98 604.85,-80.69"/>
<text text-anchor="middle" x="602.08" y="-84" font-family="Times,serif" font-size="14.00">#</text>
</g>
<!-- quote&#45;&gt;quote -->
<g id="edge71" class="edge">
<title>quote&#45;&gt;quote</title>
<path fill="none" stroke="darkgreen" stroke-dasharray="5,2" d="M503.38,-202.68C516.33,-204.09 527.3,-197.28 527.3,-182.24 527.3,-171.31 521.51,-164.73 513.38,-162.48"/>
<polygon fill="darkgreen" stroke="darkgreen" points="513.6,-158.99 503.38,-161.79 513.12,-165.97 513.6,-158.99"/>
<text text-anchor="middle" x="520.18" y="-151.62" font-family="Times,serif" font-size="14.00">&#39;</text>
</g>
<!-- quote&#45;&gt;token -->
<g id="edge72" class="edge">
<title>quote&#45;&gt;token</title>
<path fill="none" stroke="darkgreen" stroke-dasharray="5,2" d="M443.6,-205.96C417.22,-224.45 378.04,-250.44 348.54,-269"/>
<polygon fill="darkgreen" stroke="darkgreen" points="346.35,-266.24 339.72,-274.51 350.06,-272.18 346.35,-266.24"/>
<text text-anchor="middle" x="349.53" y="-255.72" font-family="Times,serif" font-size="14.00">abc</text>
</g>
<!-- token&#45;&gt;libmo -->
<g id="edge10" class="edge">
<title>token&#45;&gt;libmo</title>
<path fill="none" stroke="blue" stroke-dasharray="5,2" d="M325.67,-325.18C352.09,-365.49 402.04,-435.44 434.31,-477.41"/>
<polygon fill="blue" stroke="blue" points="431.62,-479.66 440.51,-485.41 437.15,-475.37 431.62,-479.66"/>
<text text-anchor="middle" x="424.51" y="-473.48" font-family="Times,serif" font-size="14.00">ws</text>
</g>
<!-- token&#45;&gt;libmo -->
<g id="edge15" class="edge">
<title>token&#45;&gt;libmo</title>
<path fill="none" stroke="blue" stroke-dasharray="5,2" d="M331.99,-320.72C361.71,-358.68 411.84,-428.45 441.22,-472.46"/>
<polygon fill="blue" stroke="blue" points="438.37,-474.5 446.81,-480.91 444.21,-470.64 438.37,-474.5"/>
<text text-anchor="middle" x="431.46" y="-467.8" font-family="Times,serif" font-size="14.00">nl</text>
</g>
<!-- token&#45;&gt;libmo -->
<g id="edge16" class="edge">
<title>token&#45;&gt;libmo</title>
<path fill="none" stroke="red" stroke-dasharray="5,2" d="M336.89,-316.1C370.85,-351.78 422.79,-422.68 449.76,-468.73"/>
<polygon fill="red" stroke="red" points="446.81,-470.64 454.8,-477.59 452.9,-467.17 446.81,-470.64"/>
<text text-anchor="middle" x="440.12" y="-463.49" font-family="Times,serif" font-size="14.00">#</text>
</g>
<!-- token&#45;&gt;paren -->
<g id="edge11" class="edge">
<title>token&#45;&gt;paren</title>
<path fill="none" stroke="darkgreen" stroke-dasharray="5,2" d="M339.36,-311.95C364.76,-328.35 400.53,-352.93 427.35,-372.27"/>
<polygon fill="darkgreen" stroke="darkgreen" points="425.57,-375.31 435.72,-378.35 429.69,-369.64 425.57,-375.31"/>
<text text-anchor="middle" x="418.05" y="-371.22" font-family="Times,serif" font-size="14.00">()</text>
</g>
<!-- token&#45;&gt;string -->
<g id="edge12" class="edge">
<title>token&#45;&gt;string</title>
<path fill="none" stroke="darkgreen" stroke-dasharray="5,2" d="M275.2,-277.43C231.45,-258.17 154.18,-224.15 105.45,-202.69"/>
<polygon fill="darkgreen" stroke="darkgreen" points="106.67,-199.41 96.11,-198.58 103.85,-205.81 106.67,-199.41"/>
<text text-anchor="middle" x="114.1" y="-194.49" font-family="Times,serif" font-size="14.00">&quot;</text>
</g>
<!-- token&#45;&gt;comment -->
<g id="edge14" class="edge">
<title>token&#45;&gt;comment</title>
<path fill="none" stroke="darkgreen" stroke-dasharray="5,2" d="M308.41,-256.49C308.56,-220.07 308.8,-162.62 308.99,-118.36"/>
<polygon fill="darkgreen" stroke="darkgreen" points="312.49,-118.28 309.03,-108.27 305.49,-118.25 312.49,-118.28"/>
<text text-anchor="middle" x="316.57" y="-120.92" font-family="Times,serif" font-size="14.00">;</text>
</g>
<!-- token&#45;&gt;quote -->
<g id="edge17" class="edge">
<title>token&#45;&gt;quote</title>
<path fill="none" stroke="darkgreen" stroke-dasharray="5,2" d="M336.27,-269.71C362.53,-251.28 401.88,-225.17 431.57,-206.47"/>
<polygon fill="darkgreen" stroke="darkgreen" points="433.44,-209.43 440.06,-201.16 429.72,-203.49 433.44,-209.43"/>
<text text-anchor="middle" x="430.26" y="-212.56" font-family="Times,serif" font-size="14.00">&#39;</text>
</g>
<!-- token&#45;&gt;token -->
<g id="edge13" class="edge">
<title>token&#45;&gt;token</title>
<path fill="none" stroke="gray" stroke-dasharray="5,2" d="M343.31,-303.28C354.15,-303.07 362.65,-299.64 362.65,-292.98 362.65,-288.61 358.99,-285.63 353.41,-284.04"/>
<polygon fill="gray" stroke="gray" points="353.69,-280.54 343.31,-282.68 352.75,-287.48 353.69,-280.54"/>
<text text-anchor="middle" x="360.49" y="-273.61" font-family="Times,serif" font-size="14.00">\</text>
</g>
<!-- token&#45;&gt;token -->
<g id="edge18" class="edge">
<title>token&#45;&gt;token</title>
<path fill="none" stroke="gray" stroke-dasharray="5,2" d="M339.51,-311.79C360.36,-317.08 380.65,-310.81 380.65,-292.98 380.65,-278.07 366.47,-271.25 349.64,-272.5"/>
<polygon fill="gray" stroke="gray" points="348.81,-269.09 339.51,-274.17 349.95,-276 348.81,-269.09"/>
<text text-anchor="middle" x="354.37" y="-260.31" font-family="Times,serif" font-size="14.00">abc</text>
</g>
<!-- escape&#45;&gt;string -->
<g id="edge28" class="edge">
<title>escape&#45;&gt;string</title>
<path fill="none" stroke="gray" stroke-dasharray="5,2" d="M25.09,-75.81C11.36,-97.56 10.39,-131.69 22.17,-155.2"/>
<polygon fill="gray" stroke="gray" points="19.32,-157.25 27.54,-163.94 25.29,-153.59 19.32,-157.25"/>
<text text-anchor="middle" x="12.52" y="-150.32" font-family="Times,serif" font-size="14.00">ws</text>
</g>
<!-- escape&#45;&gt;string -->
<g id="edge29" class="edge">
<title>escape&#45;&gt;string</title>
<path fill="none" stroke="gray" stroke-dasharray="5,2" d="M32.05,-84.9C26.5,-103.26 26.04,-126.83 30.64,-146.07"/>
<polygon fill="gray" stroke="gray" points="27.3,-147.1 33.51,-155.68 34.01,-145.1 27.3,-147.1"/>
<text text-anchor="middle" x="21.56" y="-138.53" font-family="Times,serif" font-size="14.00">()</text>
</g>
<!-- escape&#45;&gt;string -->
<g id="edge30" class="edge">
<title>escape&#45;&gt;string</title>
<path fill="none" stroke="gray" stroke-dasharray="5,2" d="M42.62,-92.09C40.72,-106.59 40.5,-123.3 41.96,-138.31"/>
<polygon fill="gray" stroke="gray" points="38.51,-138.91 43.24,-148.39 45.45,-138.02 38.51,-138.91"/>
<text text-anchor="middle" x="33.64" y="-129.46" font-family="Times,serif" font-size="14.00">&quot;</text>
</g>
<!-- escape&#45;&gt;string -->
<g id="edge31" class="edge">
<title>escape&#45;&gt;string</title>
<path fill="none" stroke="gray" stroke-dasharray="5,2" d="M54.89,-96.07C54.45,-108.22 54.39,-121.62 54.7,-134.13"/>
<polygon fill="gray" stroke="gray" points="51.21,-134.49 55.06,-144.37 58.21,-134.25 51.21,-134.49"/>
<text text-anchor="middle" x="46.89" y="-124.63" font-family="Times,serif" font-size="14.00">\</text>
</g>
<!-- escape&#45;&gt;string -->
<g id="edge32" class="edge">
<title>escape&#45;&gt;string</title>
<path fill="none" stroke="gray" stroke-dasharray="5,2" d="M67.63,-96.07C68.06,-108.22 68.12,-121.62 67.81,-134.13"/>
<polygon fill="gray" stroke="gray" points="64.3,-134.25 67.46,-144.37 71.3,-134.49 64.3,-134.25"/>
<text text-anchor="middle" x="60.41" y="-124.1" font-family="Times,serif" font-size="14.00">;</text>
</g>
<!-- escape&#45;&gt;string -->
<g id="edge33" class="edge">
<title>escape&#45;&gt;string</title>
<path fill="none" stroke="gray" stroke-dasharray="5,2" d="M79.9,-92.09C81.8,-106.59 82.01,-123.3 80.55,-138.31"/>
<polygon fill="gray" stroke="gray" points="77.06,-138.02 79.27,-148.39 84.01,-138.91 77.06,-138.02"/>
<text text-anchor="middle" x="73.78" y="-127.54" font-family="Times,serif" font-size="14.00">nl</text>
</g>
<!-- escape&#45;&gt;string -->
<g id="edge34" class="edge">
<title>escape&#45;&gt;string</title>
<path fill="none" stroke="gray" stroke-dasharray="5,2" d="M90.47,-84.9C96.01,-103.26 96.48,-126.83 91.87,-146.07"/>
<polygon fill="gray" stroke="gray" points="88.51,-145.1 89,-155.68 95.22,-147.1 88.51,-145.1"/>
<text text-anchor="middle" x="86.38" y="-134.17" font-family="Times,serif" font-size="14.00">#</text>
</g>
<!-- escape&#45;&gt;string -->
<g id="edge35" class="edge">
<title>escape&#45;&gt;string</title>
<path fill="none" stroke="gray" stroke-dasharray="5,2" d="M97.43,-75.81C111.15,-97.56 112.13,-131.69 100.34,-155.2"/>
<polygon fill="gray" stroke="gray" points="97.22,-153.59 94.97,-163.94 103.19,-157.25 97.22,-153.59"/>
<text text-anchor="middle" x="97.03" y="-142.36" font-family="Times,serif" font-size="14.00">&#39;</text>
</g>
<!-- escape&#45;&gt;string -->
<g id="edge36" class="edge">
<title>escape&#45;&gt;string</title>
<path fill="none" stroke="gray" stroke-dasharray="5,2" d="M101.19,-68.98C127.48,-91.99 128.87,-137.72 105.37,-163.14"/>
<polygon fill="gray" stroke="gray" points="102.79,-160.75 97.68,-170.03 107.46,-165.96 102.79,-160.75"/>
<text text-anchor="middle" x="104.75" y="-149.78" font-family="Times,serif" font-size="14.00">abc</text>
</g>
</g>
</svg>
